<svg width="528" height="311" viewBox="0 0 528 311" fill="none" xmlns="http://www.w3.org/2000/svg">
<g clip-path="url(#clip0_1_988)">
<path d="M0.5 6C0.5 2.96243 2.96243 0.5 6 0.5H522C525.038 0.5 527.5 2.96243 527.5 6V305C527.5 308.038 525.038 310.5 522 310.5H5.99999C2.96243 310.5 0.5 308.038 0.5 305V6Z" fill="#181818" stroke="#2A2A2A"/>
<g clip-path="url(#clip1_1_988)">
<rect x="526.938" y="1" width="1" height="112" fill="#2A2A2A"/>
<g clip-path="url(#clip2_1_988)">
<path d="M1 9C1 4.58172 4.58172 1 9 1H519C523.418 1 527 4.58172 527 9V105C527 109.418 523.418 113 519 113H9.00001C4.58173 113 1 109.418 1 105V9Z" fill="#181818"/>
<path d="M2 12H50V34H2V12Z" fill="#1E1E1E"/>
<path d="M31.9687 27V26.184H34.1767V20.544H32.4607V19.908C32.9167 19.844 33.2967 19.768 33.6007 19.68C33.9047 19.592 34.1807 19.48 34.4287 19.344H35.1607V26.184H37.1647V27H31.9687Z" fill="#828282"/>
<path d="M2 56H50V78H2V56Z" fill="#1E1E1E"/>
<path d="M34.2487 71.144C33.5847 71.144 33.0287 71.036 32.5807 70.82C32.1327 70.596 31.7687 70.344 31.4887 70.064L31.9927 69.416C32.2487 69.656 32.5527 69.868 32.9047 70.052C33.2647 70.236 33.6927 70.328 34.1887 70.328C34.4527 70.328 34.6967 70.296 34.9207 70.232C35.1447 70.16 35.3367 70.064 35.4967 69.944C35.6647 69.824 35.7927 69.68 35.8807 69.512C35.9767 69.336 36.0247 69.14 36.0247 68.924C36.0247 68.7 35.9727 68.496 35.8687 68.312C35.7727 68.12 35.6127 67.956 35.3887 67.82C35.1647 67.684 34.8767 67.58 34.5247 67.508C34.1727 67.436 33.7447 67.4 33.2407 67.4V66.644C33.6967 66.644 34.0807 66.608 34.3927 66.536C34.7127 66.464 34.9727 66.364 35.1727 66.236C35.3727 66.108 35.5167 65.956 35.6047 65.78C35.7007 65.604 35.7487 65.416 35.7487 65.216C35.7487 64.84 35.6047 64.544 35.3167 64.328C35.0367 64.112 34.6607 64.004 34.1887 64.004C33.8287 64.004 33.4887 64.076 33.1687 64.22C32.8487 64.364 32.5607 64.552 32.3047 64.784L31.7767 64.16C32.0967 63.88 32.4607 63.652 32.8687 63.476C33.2767 63.292 33.7287 63.2 34.2247 63.2C34.5847 63.2 34.9167 63.244 35.2207 63.332C35.5327 63.42 35.8007 63.548 36.0247 63.716C36.2567 63.876 36.4367 64.076 36.5647 64.316C36.6927 64.556 36.7567 64.832 36.7567 65.144C36.7567 65.608 36.6047 65.988 36.3007 66.284C35.9967 66.58 35.6047 66.808 35.1247 66.968V67.016C35.3807 67.072 35.6207 67.156 35.8447 67.268C36.0767 67.372 36.2807 67.508 36.4567 67.676C36.6327 67.836 36.7687 68.024 36.8647 68.24C36.9687 68.456 37.0207 68.696 37.0207 68.96C37.0207 69.296 36.9487 69.6 36.8047 69.872C36.6607 70.144 36.4607 70.376 36.2047 70.568C35.9567 70.752 35.6647 70.896 35.3287 71C34.9927 71.096 34.6327 71.144 34.2487 71.144Z" fill="#828282"/>
<path d="M103.196 73.112C102.364 72.456 101.704 71.676 101.216 70.772C100.736 69.86 100.496 68.824 100.496 67.664C100.496 66.504 100.736 65.468 101.216 64.556C101.704 63.644 102.364 62.864 103.196 62.216L103.736 62.72C102.936 63.392 102.344 64.132 101.96 64.94C101.576 65.748 101.384 66.656 101.384 67.664C101.384 68.672 101.576 69.58 101.96 70.388C102.344 71.188 102.936 71.928 103.736 72.608L103.196 73.112ZM109.035 71.144C108.747 71.144 108.439 71.076 108.111 70.94C107.791 70.796 107.495 70.6 107.223 70.352H107.187L107.103 71H106.311V62.456H107.295V64.784L107.259 65.912H107.295C107.559 65.64 107.863 65.424 108.207 65.264C108.559 65.104 108.907 65.024 109.251 65.024C109.779 65.024 110.223 65.148 110.583 65.396C110.943 65.636 111.215 65.98 111.399 66.428C111.583 66.868 111.675 67.388 111.675 67.988C111.675 68.652 111.551 69.22 111.303 69.692C111.063 70.164 110.743 70.524 110.343 70.772C109.943 71.02 109.507 71.144 109.035 71.144ZM108.879 70.316C109.215 70.316 109.515 70.224 109.779 70.04C110.051 69.856 110.263 69.592 110.415 69.248C110.575 68.896 110.655 68.48 110.655 68C110.655 67.576 110.599 67.204 110.487 66.884C110.375 66.556 110.199 66.304 109.959 66.128C109.719 65.944 109.403 65.852 109.011 65.852C108.747 65.852 108.467 65.924 108.171 66.068C107.883 66.204 107.591 66.424 107.295 66.728V69.632C107.575 69.88 107.855 70.056 108.135 70.16C108.423 70.264 108.671 70.316 108.879 70.316ZM115.343 71.144C114.647 71.144 114.135 70.944 113.807 70.544C113.479 70.144 113.315 69.56 113.315 68.792V65.168H114.311V68.66C114.311 69.212 114.411 69.624 114.611 69.896C114.819 70.16 115.167 70.292 115.655 70.292C115.991 70.292 116.295 70.208 116.567 70.04C116.847 69.864 117.147 69.588 117.467 69.212V65.168H118.451V71H117.647L117.563 69.98H117.515C117.219 70.316 116.895 70.596 116.543 70.82C116.191 71.036 115.791 71.144 115.343 71.144ZM123.738 71.144C123.13 71.144 122.582 71.024 122.094 70.784C121.614 70.544 121.234 70.196 120.954 69.74C120.682 69.284 120.546 68.736 120.546 68.096C120.546 67.44 120.694 66.884 120.99 66.428C121.286 65.972 121.678 65.624 122.166 65.384C122.662 65.144 123.206 65.024 123.798 65.024C124.278 65.024 124.69 65.108 125.034 65.276C125.386 65.444 125.682 65.644 125.922 65.876L125.43 66.512C125.19 66.304 124.942 66.14 124.686 66.02C124.43 65.9 124.146 65.84 123.834 65.84C123.386 65.84 122.99 65.936 122.646 66.128C122.302 66.312 122.034 66.576 121.842 66.92C121.658 67.256 121.566 67.648 121.566 68.096C121.566 68.536 121.658 68.924 121.842 69.26C122.026 69.596 122.286 69.86 122.622 70.052C122.966 70.236 123.362 70.328 123.81 70.328C124.17 70.328 124.498 70.256 124.794 70.112C125.098 69.968 125.37 69.796 125.61 69.596L126.054 70.232C125.734 70.52 125.374 70.744 124.974 70.904C124.582 71.064 124.17 71.144 123.738 71.144ZM128.053 71V62.456H129.037V68.24H129.085L132.229 65.168H133.357L129.037 69.416V71H128.053ZM132.565 71L130.285 67.892L130.885 67.256L133.669 71H132.565ZM137.937 71.144C137.353 71.144 136.821 71.024 136.341 70.784C135.869 70.544 135.493 70.196 135.213 69.74C134.933 69.276 134.793 68.72 134.793 68.072C134.793 67.44 134.933 66.896 135.213 66.44C135.493 65.984 135.857 65.636 136.305 65.396C136.761 65.148 137.249 65.024 137.769 65.024C138.329 65.024 138.805 65.14 139.197 65.372C139.597 65.596 139.901 65.912 140.109 66.32C140.325 66.728 140.433 67.208 140.433 67.76C140.433 67.872 140.429 67.98 140.421 68.084C140.413 68.188 140.401 68.28 140.385 68.36H135.453V67.592H139.797L139.545 67.868C139.545 67.18 139.385 66.664 139.065 66.32C138.753 65.976 138.329 65.804 137.793 65.804C137.433 65.804 137.097 65.892 136.785 66.068C136.481 66.244 136.237 66.5 136.053 66.836C135.869 67.172 135.777 67.584 135.777 68.072C135.777 68.576 135.877 68.996 136.077 69.332C136.277 69.668 136.549 69.924 136.893 70.1C137.237 70.268 137.625 70.352 138.057 70.352C138.409 70.352 138.725 70.304 139.005 70.208C139.293 70.104 139.569 69.968 139.833 69.8L140.193 70.448C139.905 70.64 139.573 70.804 139.197 70.94C138.829 71.076 138.409 71.144 137.937 71.144ZM145.9 71.144C145.332 71.144 144.884 71.044 144.556 70.844C144.228 70.636 143.992 70.352 143.848 69.992C143.712 69.632 143.644 69.212 143.644 68.732V65.972H142V65.228L143.68 65.168L143.812 63.296H144.628V65.168H147.496V65.972H144.628V68.744C144.628 69.088 144.672 69.38 144.76 69.62C144.848 69.86 145 70.04 145.216 70.16C145.432 70.28 145.728 70.34 146.104 70.34C146.384 70.34 146.636 70.316 146.86 70.268C147.084 70.22 147.3 70.156 147.508 70.076L147.724 70.796C147.46 70.892 147.18 70.972 146.884 71.036C146.596 71.108 146.268 71.144 145.9 71.144ZM149.087 72.68V71.828H154.847V72.68H149.087ZM159.355 71V65.972H156.643V65.168H160.339V71H159.355ZM159.739 63.944C159.515 63.944 159.327 63.876 159.175 63.74C159.023 63.596 158.947 63.408 158.947 63.176C158.947 62.944 159.023 62.76 159.175 62.624C159.327 62.48 159.515 62.408 159.739 62.408C159.963 62.408 160.151 62.48 160.303 62.624C160.455 62.76 160.531 62.944 160.531 63.176C160.531 63.408 160.455 63.596 160.303 63.74C160.151 63.876 159.963 63.944 159.739 63.944ZM166.01 71.144C165.25 71.144 164.638 70.88 164.174 70.352C163.71 69.816 163.478 69.064 163.478 68.096C163.478 67.464 163.602 66.92 163.85 66.464C164.106 66 164.434 65.644 164.834 65.396C165.242 65.148 165.674 65.024 166.13 65.024C166.474 65.024 166.786 65.092 167.066 65.228C167.354 65.356 167.622 65.54 167.87 65.78H167.906L167.858 64.7V62.456H168.842V71H168.026L167.942 70.232H167.906C167.674 70.48 167.39 70.696 167.054 70.88C166.726 71.056 166.378 71.144 166.01 71.144ZM166.214 70.316C166.502 70.316 166.782 70.244 167.054 70.1C167.326 69.948 167.594 69.728 167.858 69.44V66.536C167.594 66.288 167.334 66.112 167.078 66.008C166.83 65.904 166.578 65.852 166.322 65.852C165.986 65.852 165.678 65.948 165.398 66.14C165.126 66.324 164.906 66.584 164.738 66.92C164.578 67.248 164.498 67.636 164.498 68.084C164.498 68.78 164.65 69.328 164.954 69.728C165.258 70.12 165.678 70.316 166.214 70.316ZM178.168 66.128V65.384H183.328V66.128H178.168ZM178.168 68.696V67.952H183.328V68.696H178.168Z" fill="#DDDDDD"/>
<path d="M255.004 73.112L254.464 72.608C255.272 71.928 255.864 71.188 256.24 70.388C256.624 69.588 256.816 68.68 256.816 67.664C256.816 66.648 256.624 65.74 256.24 64.94C255.864 64.14 255.272 63.4 254.464 62.72L255.004 62.216C255.836 62.864 256.492 63.644 256.972 64.556C257.46 65.468 257.704 66.504 257.704 67.664C257.704 68.824 257.46 69.86 256.972 70.772C256.492 71.684 255.836 72.464 255.004 73.112ZM263.795 66.848C263.523 66.848 263.291 66.756 263.099 66.572C262.915 66.388 262.823 66.144 262.823 65.84C262.823 65.536 262.915 65.292 263.099 65.108C263.291 64.916 263.523 64.82 263.795 64.82C264.067 64.82 264.295 64.916 264.479 65.108C264.671 65.292 264.767 65.536 264.767 65.84C264.767 66.144 264.671 66.388 264.479 66.572C264.295 66.756 264.067 66.848 263.795 66.848ZM262.835 73.556L262.559 72.932C263.055 72.708 263.427 72.436 263.675 72.116C263.923 71.804 264.055 71.408 264.071 70.928C264.031 70.944 263.991 70.952 263.951 70.952C263.919 70.952 263.883 70.952 263.843 70.952C263.587 70.952 263.367 70.88 263.183 70.736C262.999 70.584 262.907 70.356 262.907 70.052C262.907 69.756 263.003 69.532 263.195 69.38C263.387 69.22 263.611 69.14 263.867 69.14C264.227 69.14 264.495 69.28 264.671 69.56C264.855 69.832 264.947 70.204 264.947 70.676C264.947 71.38 264.759 71.972 264.383 72.452C264.015 72.94 263.499 73.308 262.835 73.556Z" fill="#DDDDDD"/>
<path d="M65.806 27.132C65.388 27.132 64.9993 27.0697 64.64 26.945C64.288 26.8203 63.98 26.6407 63.716 26.406C63.452 26.164 63.2467 25.8707 63.1 25.526C62.9533 25.174 62.88 24.778 62.88 24.338C62.88 23.8907 62.957 23.4947 63.111 23.15C63.2723 22.798 63.4887 22.501 63.76 22.259C64.0313 22.017 64.3467 21.8337 64.706 21.709C65.0727 21.5843 65.4577 21.522 65.861 21.522C66.301 21.522 66.6787 21.599 66.994 21.753C67.3167 21.907 67.588 22.0903 67.808 22.303L67.357 22.886C67.137 22.6953 66.906 22.545 66.664 22.435C66.4293 22.325 66.1727 22.27 65.894 22.27C65.586 22.27 65.3037 22.3213 65.047 22.424C64.7903 22.5193 64.5703 22.6587 64.387 22.842C64.211 23.0253 64.0717 23.2453 63.969 23.502C63.8663 23.7513 63.815 24.03 63.815 24.338C63.815 24.646 63.8627 24.9247 63.958 25.174C64.0607 25.4233 64.2 25.6397 64.376 25.823C64.5593 25.999 64.7757 26.1383 65.025 26.241C65.2817 26.3363 65.564 26.384 65.872 26.384C66.202 26.384 66.5027 26.3217 66.774 26.197C67.0527 26.065 67.302 25.9037 67.522 25.713L67.929 26.296C67.6283 26.56 67.2983 26.7653 66.939 26.912C66.5797 27.0587 66.202 27.132 65.806 27.132ZM70.2017 27V21.654H70.9497L71.0267 22.919H71.0597C71.3384 22.4863 71.6794 22.1453 72.0827 21.896C72.4934 21.6467 72.948 21.522 73.4467 21.522C73.6447 21.522 73.828 21.5403 73.9967 21.577C74.1654 21.6063 74.334 21.6613 74.5027 21.742L74.2937 22.523C74.103 22.457 73.9417 22.4093 73.8097 22.38C73.685 22.3507 73.5164 22.336 73.3037 22.336C72.9004 22.336 72.5117 22.4533 72.1377 22.688C71.771 22.9153 71.4264 23.3077 71.1037 23.865V27H70.2017ZM78.8214 27.132C78.4181 27.132 78.0404 27.0697 77.6884 26.945C77.3437 26.8203 77.0394 26.637 76.7754 26.395C76.5187 26.153 76.3134 25.8597 76.1594 25.515C76.0127 25.163 75.9394 24.7633 75.9394 24.316C75.9394 23.8833 76.0127 23.4947 76.1594 23.15C76.3134 22.8053 76.5151 22.512 76.7644 22.27C77.0211 22.028 77.3107 21.8447 77.6334 21.72C77.9634 21.588 78.3081 21.522 78.6674 21.522C79.0487 21.522 79.3897 21.5843 79.6904 21.709C79.9984 21.8263 80.2551 21.995 80.4604 22.215C80.6731 22.435 80.8344 22.699 80.9444 23.007C81.0544 23.315 81.1094 23.656 81.1094 24.03C81.1094 24.1327 81.1057 24.2317 81.0984 24.327C81.0911 24.4223 81.0801 24.5067 81.0654 24.58H76.8524C76.9111 25.1887 77.1311 25.647 77.5124 25.955C77.9011 26.2557 78.3741 26.406 78.9314 26.406C79.2541 26.406 79.5437 26.362 79.8004 26.274C80.0644 26.1787 80.3174 26.054 80.5594 25.9L80.8894 26.494C80.6254 26.67 80.3211 26.8203 79.9764 26.945C79.6391 27.0697 79.2541 27.132 78.8214 27.132ZM78.6894 22.237C78.4694 22.237 78.2567 22.2737 78.0514 22.347C77.8534 22.4203 77.6737 22.5267 77.5124 22.666C77.3511 22.798 77.2154 22.9667 77.1054 23.172C76.9954 23.3773 76.9184 23.612 76.8744 23.876H80.2844C80.2477 23.326 80.0864 22.9153 79.8004 22.644C79.5217 22.3727 79.1514 22.237 78.6894 22.237ZM84.4931 27.132C84.2438 27.132 84.0091 27.0953 83.7891 27.022C83.5691 26.956 83.3748 26.8607 83.2061 26.736C83.0448 26.604 82.9164 26.4463 82.8211 26.263C82.7258 26.0723 82.6781 25.856 82.6781 25.614C82.6781 25.3133 82.7478 25.053 82.8871 24.833C83.0338 24.6057 83.2611 24.4113 83.5691 24.25C83.8844 24.0887 84.2878 23.9567 84.7791 23.854C85.2704 23.7513 85.8608 23.6707 86.5501 23.612C86.5428 23.4287 86.5134 23.2563 86.4621 23.095C86.4108 22.9337 86.3301 22.7943 86.2201 22.677C86.1101 22.5523 85.9634 22.4533 85.7801 22.38C85.6041 22.3067 85.3878 22.27 85.1311 22.27C84.7791 22.27 84.4418 22.3397 84.1191 22.479C83.7964 22.611 83.5104 22.754 83.2611 22.908L82.9091 22.292C83.0411 22.204 83.1951 22.116 83.3711 22.028C83.5544 21.9327 83.7451 21.8483 83.9431 21.775C84.1484 21.7017 84.3648 21.643 84.5921 21.599C84.8194 21.5477 85.0504 21.522 85.2851 21.522C86.0184 21.522 86.5611 21.7237 86.9131 22.127C87.2724 22.523 87.4521 23.0547 87.4521 23.722V27H86.7151L86.6381 26.274H86.6051C86.3044 26.5087 85.9708 26.7103 85.6041 26.879C85.2448 27.0477 84.8744 27.132 84.4931 27.132ZM84.7351 26.406C85.0431 26.406 85.3438 26.34 85.6371 26.208C85.9378 26.0687 86.2421 25.8707 86.5501 25.614V24.206C85.9781 24.25 85.4978 24.3123 85.1091 24.393C84.7278 24.4737 84.4198 24.5727 84.1851 24.69C83.9578 24.8 83.7964 24.9283 83.7011 25.075C83.6058 25.2143 83.5581 25.372 83.5581 25.548C83.5581 25.702 83.5911 25.834 83.6571 25.944C83.7231 26.0467 83.8074 26.1347 83.9101 26.208C84.0201 26.274 84.1448 26.3253 84.2841 26.362C84.4308 26.3913 84.5811 26.406 84.7351 26.406ZM92.7168 27.132C92.3281 27.132 92.0018 27.0807 91.7378 26.978C91.4738 26.868 91.2611 26.7177 91.0998 26.527C90.9385 26.329 90.8211 26.0943 90.7478 25.823C90.6818 25.5517 90.6488 25.251 90.6488 24.921V22.391H89.1418V21.709L90.6818 21.654L90.8028 19.938H91.5508V21.654H94.1798V22.391H91.5508V24.932C91.5508 25.174 91.5728 25.3867 91.6168 25.57C91.6608 25.746 91.7341 25.8963 91.8368 26.021C91.9395 26.1457 92.0788 26.241 92.2548 26.307C92.4308 26.3657 92.6471 26.395 92.9038 26.395C93.1605 26.395 93.3915 26.373 93.5968 26.329C93.8021 26.285 94.0001 26.2263 94.1908 26.153L94.3888 26.813C94.1468 26.901 93.8901 26.9743 93.6188 27.033C93.3548 27.099 93.0541 27.132 92.7168 27.132ZM98.6085 27.132C98.2052 27.132 97.8275 27.0697 97.4755 26.945C97.1308 26.8203 96.8265 26.637 96.5625 26.395C96.3058 26.153 96.1005 25.8597 95.9465 25.515C95.7998 25.163 95.7265 24.7633 95.7265 24.316C95.7265 23.8833 95.7998 23.4947 95.9465 23.15C96.1005 22.8053 96.3022 22.512 96.5515 22.27C96.8082 22.028 97.0978 21.8447 97.4205 21.72C97.7505 21.588 98.0952 21.522 98.4545 21.522C98.8358 21.522 99.1768 21.5843 99.4775 21.709C99.7855 21.8263 100.042 21.995 100.248 22.215C100.46 22.435 100.622 22.699 100.732 23.007C100.842 23.315 100.897 23.656 100.897 24.03C100.897 24.1327 100.893 24.2317 100.886 24.327C100.878 24.4223 100.867 24.5067 100.853 24.58H96.6395C96.6982 25.1887 96.9182 25.647 97.2995 25.955C97.6882 26.2557 98.1612 26.406 98.7185 26.406C99.0412 26.406 99.3308 26.362 99.5875 26.274C99.8515 26.1787 100.105 26.054 100.347 25.9L100.677 26.494C100.413 26.67 100.108 26.8203 99.7635 26.945C99.4262 27.0697 99.0412 27.132 98.6085 27.132ZM98.4765 22.237C98.2565 22.237 98.0438 22.2737 97.8385 22.347C97.6405 22.4203 97.4608 22.5267 97.2995 22.666C97.1382 22.798 97.0025 22.9667 96.8925 23.172C96.7825 23.3773 96.7055 23.612 96.6615 23.876H100.072C100.035 23.326 99.8735 22.9153 99.5875 22.644C99.3088 22.3727 98.9385 22.237 98.4765 22.237Z" fill="#569CD6"/>
<path d="M164.884 22.776L164.584 20.076L164.56 18.756H165.88L165.856 20.076L165.556 22.776H164.884ZM167.644 22.776L167.344 20.076L167.32 18.756H168.64L168.616 20.076L168.316 22.776H167.644ZM171.419 27V19.128H173.795C174.379 19.128 174.887 19.204 175.319 19.356C175.759 19.5 176.099 19.74 176.339 20.076C176.587 20.412 176.711 20.868 176.711 21.444C176.711 21.996 176.587 22.452 176.339 22.812C176.099 23.164 175.759 23.432 175.319 23.616C174.879 23.792 174.371 23.88 173.795 23.88H172.415V27H171.419ZM172.415 23.064H173.675C174.363 23.064 174.871 22.932 175.199 22.668C175.535 22.404 175.703 21.996 175.703 21.444C175.703 20.876 175.535 20.484 175.199 20.268C174.863 20.044 174.355 19.932 173.675 19.932H172.415V23.064ZM180.343 27.144C179.647 27.144 179.135 26.944 178.807 26.544C178.479 26.144 178.315 25.56 178.315 24.792V21.168H179.311V24.66C179.311 25.212 179.411 25.624 179.611 25.896C179.819 26.16 180.167 26.292 180.655 26.292C180.991 26.292 181.295 26.208 181.567 26.04C181.847 25.864 182.147 25.588 182.467 25.212V21.168H183.451V27H182.647L182.563 25.98H182.515C182.219 26.316 181.895 26.596 181.543 26.82C181.191 27.036 180.791 27.144 180.343 27.144ZM188.426 27.144C188.138 27.144 187.83 27.076 187.502 26.94C187.182 26.796 186.886 26.6 186.614 26.352H186.578L186.494 27H185.702V18.456H186.686V20.784L186.65 21.912H186.686C186.95 21.64 187.254 21.424 187.598 21.264C187.95 21.104 188.298 21.024 188.642 21.024C189.17 21.024 189.614 21.148 189.974 21.396C190.334 21.636 190.606 21.98 190.79 22.428C190.974 22.868 191.066 23.388 191.066 23.988C191.066 24.652 190.942 25.22 190.694 25.692C190.454 26.164 190.134 26.524 189.734 26.772C189.334 27.02 188.898 27.144 188.426 27.144ZM188.27 26.316C188.606 26.316 188.906 26.224 189.17 26.04C189.442 25.856 189.654 25.592 189.806 25.248C189.966 24.896 190.046 24.48 190.046 24C190.046 23.576 189.99 23.204 189.878 22.884C189.766 22.556 189.59 22.304 189.35 22.128C189.11 21.944 188.794 21.852 188.402 21.852C188.138 21.852 187.858 21.924 187.562 22.068C187.274 22.204 186.982 22.424 186.686 22.728V25.632C186.966 25.88 187.246 26.056 187.526 26.16C187.814 26.264 188.062 26.316 188.27 26.316ZM196.653 27.144C196.037 27.144 195.565 26.968 195.237 26.616C194.909 26.256 194.745 25.732 194.745 25.044V19.26H192.753V18.456H195.729V25.116C195.729 25.54 195.833 25.848 196.041 26.04C196.249 26.232 196.525 26.328 196.869 26.328C197.037 26.328 197.209 26.308 197.385 26.268C197.561 26.22 197.757 26.148 197.973 26.052L198.225 26.796C197.961 26.892 197.713 26.972 197.481 27.036C197.249 27.108 196.973 27.144 196.653 27.144ZM202.769 27V21.972H200.057V21.168H203.753V27H202.769ZM203.153 19.944C202.929 19.944 202.741 19.876 202.589 19.74C202.437 19.596 202.361 19.408 202.361 19.176C202.361 18.944 202.437 18.76 202.589 18.624C202.741 18.48 202.929 18.408 203.153 18.408C203.377 18.408 203.565 18.48 203.717 18.624C203.869 18.76 203.945 18.944 203.945 19.176C203.945 19.408 203.869 19.596 203.717 19.74C203.565 19.876 203.377 19.944 203.153 19.944ZM210.324 27.144C209.716 27.144 209.168 27.024 208.68 26.784C208.2 26.544 207.82 26.196 207.54 25.74C207.268 25.284 207.132 24.736 207.132 24.096C207.132 23.44 207.28 22.884 207.576 22.428C207.872 21.972 208.264 21.624 208.752 21.384C209.248 21.144 209.792 21.024 210.384 21.024C210.864 21.024 211.276 21.108 211.62 21.276C211.972 21.444 212.268 21.644 212.508 21.876L212.016 22.512C211.776 22.304 211.528 22.14 211.272 22.02C211.016 21.9 210.732 21.84 210.42 21.84C209.972 21.84 209.576 21.936 209.232 22.128C208.888 22.312 208.62 22.576 208.428 22.92C208.244 23.256 208.152 23.648 208.152 24.096C208.152 24.536 208.244 24.924 208.428 25.26C208.612 25.596 208.872 25.86 209.208 26.052C209.552 26.236 209.948 26.328 210.396 26.328C210.756 26.328 211.084 26.256 211.38 26.112C211.684 25.968 211.956 25.796 212.196 25.596L212.64 26.232C212.32 26.52 211.96 26.744 211.56 26.904C211.168 27.064 210.756 27.144 210.324 27.144ZM220.947 27L223.599 19.128H224.727L227.379 27H226.323L224.955 22.596C224.819 22.156 224.683 21.72 224.547 21.288C224.419 20.848 224.295 20.4 224.175 19.944H224.127C223.999 20.4 223.871 20.848 223.743 21.288C223.615 21.72 223.483 22.156 223.347 22.596L221.967 27H220.947ZM222.339 24.6V23.796H225.951V24.6H222.339ZM231.91 27.144C231.302 27.144 230.754 27.024 230.266 26.784C229.786 26.544 229.406 26.196 229.126 25.74C228.854 25.284 228.718 24.736 228.718 24.096C228.718 23.44 228.866 22.884 229.162 22.428C229.458 21.972 229.85 21.624 230.338 21.384C230.834 21.144 231.378 21.024 231.97 21.024C232.45 21.024 232.862 21.108 233.206 21.276C233.558 21.444 233.854 21.644 234.094 21.876L233.602 22.512C233.362 22.304 233.114 22.14 232.858 22.02C232.602 21.9 232.318 21.84 232.006 21.84C231.558 21.84 231.162 21.936 230.818 22.128C230.474 22.312 230.206 22.576 230.014 22.92C229.83 23.256 229.738 23.648 229.738 24.096C229.738 24.536 229.83 24.924 230.014 25.26C230.198 25.596 230.458 25.86 230.794 26.052C231.138 26.236 231.534 26.328 231.982 26.328C232.342 26.328 232.67 26.256 232.966 26.112C233.27 25.968 233.542 25.796 233.782 25.596L234.226 26.232C233.906 26.52 233.546 26.744 233.146 26.904C232.754 27.064 232.342 27.144 231.91 27.144ZM239.105 27.144C238.497 27.144 237.949 27.024 237.461 26.784C236.981 26.544 236.601 26.196 236.321 25.74C236.049 25.284 235.913 24.736 235.913 24.096C235.913 23.44 236.061 22.884 236.357 22.428C236.653 21.972 237.045 21.624 237.533 21.384C238.029 21.144 238.573 21.024 239.165 21.024C239.645 21.024 240.057 21.108 240.401 21.276C240.753 21.444 241.049 21.644 241.289 21.876L240.797 22.512C240.557 22.304 240.309 22.14 240.053 22.02C239.797 21.9 239.513 21.84 239.201 21.84C238.753 21.84 238.357 21.936 238.013 22.128C237.669 22.312 237.401 22.576 237.209 22.92C237.025 23.256 236.933 23.648 236.933 24.096C236.933 24.536 237.025 24.924 237.209 25.26C237.393 25.596 237.653 25.86 237.989 26.052C238.333 26.236 238.729 26.328 239.177 26.328C239.537 26.328 239.865 26.256 240.161 26.112C240.465 25.968 240.737 25.796 240.977 25.596L241.421 26.232C241.101 26.52 240.741 26.744 240.341 26.904C239.949 27.064 239.537 27.144 239.105 27.144ZM246.108 27.144C245.524 27.144 244.992 27.024 244.512 26.784C244.04 26.544 243.664 26.196 243.384 25.74C243.104 25.276 242.964 24.72 242.964 24.072C242.964 23.44 243.104 22.896 243.384 22.44C243.664 21.984 244.028 21.636 244.476 21.396C244.932 21.148 245.42 21.024 245.94 21.024C246.5 21.024 246.976 21.14 247.368 21.372C247.768 21.596 248.072 21.912 248.28 22.32C248.496 22.728 248.604 23.208 248.604 23.76C248.604 23.872 248.6 23.98 248.592 24.084C248.584 24.188 248.572 24.28 248.556 24.36H243.624V23.592H247.968L247.716 23.868C247.716 23.18 247.556 22.664 247.236 22.32C246.924 21.976 246.5 21.804 245.964 21.804C245.604 21.804 245.268 21.892 244.956 22.068C244.652 22.244 244.408 22.5 244.224 22.836C244.04 23.172 243.948 23.584 243.948 24.072C243.948 24.576 244.048 24.996 244.248 25.332C244.448 25.668 244.72 25.924 245.064 26.1C245.408 26.268 245.796 26.352 246.228 26.352C246.58 26.352 246.896 26.304 247.176 26.208C247.464 26.104 247.74 25.968 248.004 25.8L248.364 26.448C248.076 26.64 247.744 26.804 247.368 26.94C247 27.076 246.58 27.144 246.108 27.144ZM253.064 27.144C252.496 27.144 251.964 27.052 251.468 26.868C250.972 26.684 250.548 26.472 250.196 26.232L250.652 25.584C250.988 25.824 251.36 26.016 251.768 26.16C252.176 26.304 252.648 26.376 253.184 26.376C253.68 26.376 254.048 26.284 254.288 26.1C254.536 25.916 254.66 25.704 254.66 25.464C254.66 25.352 254.636 25.248 254.588 25.152C254.548 25.056 254.464 24.964 254.336 24.876C254.216 24.788 254.036 24.704 253.796 24.624C253.556 24.544 253.236 24.464 252.836 24.384C252.076 24.224 251.504 24.008 251.12 23.736C250.744 23.464 250.556 23.112 250.556 22.68C250.556 22.208 250.76 21.816 251.168 21.504C251.576 21.184 252.18 21.024 252.98 21.024C253.428 21.024 253.86 21.1 254.276 21.252C254.692 21.396 255.044 21.568 255.332 21.768L254.852 22.404C254.588 22.212 254.288 22.064 253.952 21.96C253.616 21.848 253.264 21.792 252.896 21.792C252.56 21.792 252.292 21.832 252.092 21.912C251.9 21.984 251.76 22.084 251.672 22.212C251.592 22.34 251.552 22.48 251.552 22.632C251.552 22.88 251.684 23.076 251.948 23.22C252.22 23.356 252.652 23.484 253.244 23.604C253.892 23.74 254.388 23.892 254.732 24.06C255.084 24.228 255.324 24.42 255.452 24.636C255.588 24.852 255.656 25.108 255.656 25.404C255.656 25.724 255.556 26.016 255.356 26.28C255.156 26.536 254.864 26.744 254.48 26.904C254.096 27.064 253.624 27.144 253.064 27.144ZM260.259 27.144C259.691 27.144 259.159 27.052 258.663 26.868C258.167 26.684 257.743 26.472 257.391 26.232L257.847 25.584C258.183 25.824 258.555 26.016 258.963 26.16C259.371 26.304 259.843 26.376 260.379 26.376C260.875 26.376 261.243 26.284 261.483 26.1C261.731 25.916 261.855 25.704 261.855 25.464C261.855 25.352 261.831 25.248 261.783 25.152C261.743 25.056 261.659 24.964 261.531 24.876C261.411 24.788 261.231 24.704 260.991 24.624C260.751 24.544 260.431 24.464 260.031 24.384C259.271 24.224 258.699 24.008 258.315 23.736C257.939 23.464 257.751 23.112 257.751 22.68C257.751 22.208 257.955 21.816 258.363 21.504C258.771 21.184 259.375 21.024 260.175 21.024C260.623 21.024 261.055 21.1 261.471 21.252C261.887 21.396 262.239 21.568 262.527 21.768L262.047 22.404C261.783 22.212 261.483 22.064 261.147 21.96C260.811 21.848 260.459 21.792 260.091 21.792C259.755 21.792 259.487 21.832 259.287 21.912C259.095 21.984 258.955 22.084 258.867 22.212C258.787 22.34 258.747 22.48 258.747 22.632C258.747 22.88 258.879 23.076 259.143 23.22C259.415 23.356 259.847 23.484 260.439 23.604C261.087 23.74 261.583 23.892 261.927 24.06C262.279 24.228 262.519 24.42 262.647 24.636C262.783 24.852 262.851 25.108 262.851 25.404C262.851 25.724 262.751 26.016 262.551 26.28C262.351 26.536 262.059 26.744 261.675 26.904C261.291 27.064 260.819 27.144 260.259 27.144ZM265.618 22.776L265.318 20.076L265.294 18.756H266.614L266.59 20.076L266.29 22.776H265.618ZM268.378 22.776L268.078 20.076L268.054 18.756H269.374L269.35 20.076L269.05 22.776H268.378ZM274.53 22.848C274.266 22.848 274.038 22.756 273.846 22.572C273.654 22.38 273.558 22.136 273.558 21.84C273.558 21.536 273.654 21.292 273.846 21.108C274.038 20.916 274.266 20.82 274.53 20.82C274.802 20.82 275.03 20.916 275.214 21.108C275.406 21.292 275.502 21.536 275.502 21.84C275.502 22.136 275.406 22.38 275.214 22.572C275.03 22.756 274.802 22.848 274.53 22.848ZM273.57 29.556L273.294 28.932C273.806 28.708 274.186 28.424 274.434 28.08C274.682 27.744 274.806 27.328 274.806 26.832L274.578 25.728L275.25 26.676C275.154 26.788 275.046 26.864 274.926 26.904C274.814 26.936 274.698 26.952 274.578 26.952C274.41 26.952 274.254 26.92 274.11 26.856C273.966 26.784 273.85 26.684 273.762 26.556C273.682 26.42 273.642 26.252 273.642 26.052C273.642 25.756 273.738 25.532 273.93 25.38C274.122 25.22 274.346 25.14 274.602 25.14C274.954 25.14 275.222 25.28 275.406 25.56C275.59 25.832 275.682 26.204 275.682 26.676C275.682 27.38 275.494 27.972 275.118 28.452C274.742 28.94 274.226 29.308 273.57 29.556Z" fill="#3ECF8E"/>
<path d="M192.264 66.776L191.964 64.076L191.94 62.756H193.26L193.236 64.076L192.936 66.776H192.264ZM199.147 71.144C198.787 71.144 198.455 71.08 198.151 70.952C197.847 70.816 197.607 70.624 197.431 70.376C197.255 70.128 197.167 69.832 197.167 69.488C197.167 68.832 197.495 68.336 198.151 68C198.807 67.656 199.887 67.424 201.391 67.304C201.383 67.04 201.327 66.796 201.223 66.572C201.127 66.348 200.967 66.172 200.743 66.044C200.519 65.908 200.219 65.84 199.843 65.84C199.595 65.84 199.347 65.876 199.099 65.948C198.859 66.012 198.627 66.1 198.403 66.212C198.187 66.316 197.987 66.424 197.803 66.536L197.419 65.864C197.611 65.736 197.843 65.608 198.115 65.48C198.395 65.344 198.695 65.236 199.015 65.156C199.335 65.068 199.667 65.024 200.011 65.024C200.547 65.024 200.987 65.124 201.331 65.324C201.683 65.524 201.943 65.804 202.111 66.164C202.287 66.516 202.375 66.936 202.375 67.424V71H201.571L201.487 70.208H201.451C201.131 70.464 200.771 70.684 200.371 70.868C199.971 71.052 199.563 71.144 199.147 71.144ZM199.411 70.352C199.747 70.352 200.079 70.276 200.407 70.124C200.735 69.972 201.063 69.76 201.391 69.488V67.952C200.559 68.024 199.903 68.124 199.423 68.252C198.951 68.38 198.615 68.544 198.415 68.744C198.223 68.936 198.127 69.16 198.127 69.416C198.127 69.632 198.187 69.812 198.307 69.956C198.427 70.092 198.583 70.192 198.775 70.256C198.975 70.32 199.187 70.352 199.411 70.352ZM206.463 71L204.003 65.168H204.999L206.343 68.48C206.463 68.768 206.575 69.056 206.679 69.344C206.791 69.632 206.899 69.916 207.003 70.196H207.051C207.155 69.916 207.259 69.632 207.363 69.344C207.467 69.056 207.575 68.768 207.687 68.48L209.031 65.168H209.979L207.567 71H206.463ZM213.538 71.144C213.178 71.144 212.846 71.08 212.542 70.952C212.238 70.816 211.998 70.624 211.822 70.376C211.646 70.128 211.558 69.832 211.558 69.488C211.558 68.832 211.886 68.336 212.542 68C213.198 67.656 214.278 67.424 215.782 67.304C215.774 67.04 215.718 66.796 215.614 66.572C215.518 66.348 215.358 66.172 215.134 66.044C214.91 65.908 214.61 65.84 214.234 65.84C213.986 65.84 213.738 65.876 213.49 65.948C213.25 66.012 213.018 66.1 212.794 66.212C212.578 66.316 212.378 66.424 212.194 66.536L211.81 65.864C212.002 65.736 212.234 65.608 212.506 65.48C212.786 65.344 213.086 65.236 213.406 65.156C213.726 65.068 214.058 65.024 214.402 65.024C214.938 65.024 215.378 65.124 215.722 65.324C216.074 65.524 216.334 65.804 216.502 66.164C216.678 66.516 216.766 66.936 216.766 67.424V71H215.962L215.878 70.208H215.842C215.522 70.464 215.162 70.684 214.762 70.868C214.362 71.052 213.954 71.144 213.538 71.144ZM213.802 70.352C214.138 70.352 214.47 70.276 214.798 70.124C215.126 69.972 215.454 69.76 215.782 69.488V67.952C214.95 68.024 214.294 68.124 213.814 68.252C213.342 68.38 213.006 68.544 212.806 68.744C212.614 68.936 212.518 69.16 212.518 69.416C212.518 69.632 212.578 69.812 212.698 69.956C212.818 70.092 212.974 70.192 213.166 70.256C213.366 70.32 213.578 70.352 213.802 70.352ZM222.509 71.144C221.941 71.144 221.493 71.044 221.165 70.844C220.837 70.636 220.601 70.352 220.457 69.992C220.321 69.632 220.253 69.212 220.253 68.732V65.972H218.609V65.228L220.289 65.168L220.421 63.296H221.237V65.168H224.105V65.972H221.237V68.744C221.237 69.088 221.281 69.38 221.369 69.62C221.457 69.86 221.609 70.04 221.825 70.16C222.041 70.28 222.337 70.34 222.713 70.34C222.993 70.34 223.245 70.316 223.469 70.268C223.693 70.22 223.909 70.156 224.117 70.076L224.333 70.796C224.069 70.892 223.789 70.972 223.493 71.036C223.205 71.108 222.877 71.144 222.509 71.144ZM227.929 71.144C227.569 71.144 227.237 71.08 226.933 70.952C226.629 70.816 226.389 70.624 226.213 70.376C226.037 70.128 225.949 69.832 225.949 69.488C225.949 68.832 226.277 68.336 226.933 68C227.589 67.656 228.669 67.424 230.173 67.304C230.165 67.04 230.109 66.796 230.005 66.572C229.909 66.348 229.749 66.172 229.525 66.044C229.301 65.908 229.001 65.84 228.625 65.84C228.377 65.84 228.129 65.876 227.881 65.948C227.641 66.012 227.409 66.1 227.185 66.212C226.969 66.316 226.769 66.424 226.585 66.536L226.201 65.864C226.393 65.736 226.625 65.608 226.897 65.48C227.177 65.344 227.477 65.236 227.797 65.156C228.117 65.068 228.449 65.024 228.793 65.024C229.329 65.024 229.769 65.124 230.113 65.324C230.465 65.524 230.725 65.804 230.893 66.164C231.069 66.516 231.157 66.936 231.157 67.424V71H230.353L230.269 70.208H230.233C229.913 70.464 229.553 70.684 229.153 70.868C228.753 71.052 228.345 71.144 227.929 71.144ZM228.193 70.352C228.529 70.352 228.861 70.276 229.189 70.124C229.517 69.972 229.845 69.76 230.173 69.488V67.952C229.341 68.024 228.685 68.124 228.205 68.252C227.733 68.38 227.397 68.544 227.197 68.744C227.005 68.936 226.909 69.16 226.909 69.416C226.909 69.632 226.969 69.812 227.089 69.956C227.209 70.092 227.365 70.192 227.557 70.256C227.757 70.32 227.969 70.352 228.193 70.352ZM233.924 71V65.168H234.74L234.824 66.548H234.86C235.164 66.076 235.54 65.704 235.988 65.432C236.436 65.16 236.928 65.024 237.464 65.024C237.68 65.024 237.88 65.044 238.064 65.084C238.256 65.116 238.44 65.176 238.616 65.264L238.388 66.116C238.188 66.044 238.016 65.992 237.872 65.96C237.728 65.928 237.54 65.912 237.308 65.912C236.868 65.912 236.444 66.04 236.036 66.296C235.636 66.544 235.26 66.972 234.908 67.58V71H233.924ZM243.087 71.144C242.519 71.144 241.987 71.052 241.491 70.868C240.995 70.684 240.571 70.472 240.219 70.232L240.675 69.584C241.011 69.824 241.383 70.016 241.791 70.16C242.199 70.304 242.671 70.376 243.207 70.376C243.703 70.376 244.071 70.284 244.311 70.1C244.559 69.916 244.683 69.704 244.683 69.464C244.683 69.352 244.659 69.248 244.611 69.152C244.571 69.056 244.487 68.964 244.359 68.876C244.239 68.788 244.059 68.704 243.819 68.624C243.579 68.544 243.259 68.464 242.859 68.384C242.099 68.224 241.527 68.008 241.143 67.736C240.767 67.464 240.579 67.112 240.579 66.68C240.579 66.208 240.783 65.816 241.191 65.504C241.599 65.184 242.203 65.024 243.003 65.024C243.451 65.024 243.883 65.1 244.299 65.252C244.715 65.396 245.067 65.568 245.355 65.768L244.875 66.404C244.611 66.212 244.311 66.064 243.975 65.96C243.639 65.848 243.287 65.792 242.919 65.792C242.583 65.792 242.315 65.832 242.115 65.912C241.923 65.984 241.783 66.084 241.695 66.212C241.615 66.34 241.575 66.48 241.575 66.632C241.575 66.88 241.707 67.076 241.971 67.22C242.243 67.356 242.675 67.484 243.267 67.604C243.915 67.74 244.411 67.892 244.755 68.06C245.107 68.228 245.347 68.42 245.475 68.636C245.611 68.852 245.679 69.108 245.679 69.404C245.679 69.724 245.579 70.016 245.379 70.28C245.179 70.536 244.887 70.744 244.503 70.904C244.119 71.064 243.647 71.144 243.087 71.144ZM249.827 66.776L249.527 64.076L249.503 62.756H250.823L250.799 64.076L250.499 66.776H249.827Z" fill="#3ECF8E"/>
<path d="M2 34H50V56H2V34Z" fill="#1E1E1E"/>
<path d="M31.6807 49V48.412C32.3287 47.836 32.9007 47.316 33.3967 46.852C33.9007 46.388 34.3207 45.964 34.6567 45.58C35.0007 45.188 35.2607 44.824 35.4367 44.488C35.6127 44.152 35.7007 43.824 35.7007 43.504C35.7007 43.064 35.5647 42.704 35.2927 42.424C35.0207 42.144 34.6007 42.004 34.0327 42.004C33.6727 42.004 33.3367 42.096 33.0247 42.28C32.7207 42.456 32.4447 42.672 32.1967 42.928L31.6327 42.364C31.9767 42.012 32.3447 41.732 32.7367 41.524C33.1367 41.308 33.6087 41.2 34.1527 41.2C34.5367 41.2 34.8807 41.256 35.1847 41.368C35.4967 41.472 35.7607 41.624 35.9767 41.824C36.1927 42.016 36.3567 42.252 36.4687 42.532C36.5887 42.812 36.6487 43.12 36.6487 43.456C36.6487 43.816 36.5607 44.18 36.3847 44.548C36.2167 44.908 35.9767 45.284 35.6647 45.676C35.3527 46.06 34.9807 46.464 34.5487 46.888C34.1167 47.304 33.6407 47.748 33.1207 48.22C33.3607 48.204 33.6007 48.188 33.8407 48.172C34.0807 48.156 34.3167 48.148 34.5487 48.148H37.0687V49H31.6807Z" fill="#828282"/>
<path d="M64.952 71.144C64.248 71.144 63.732 70.948 63.404 70.556C63.084 70.156 62.924 69.568 62.924 68.792V65.168H63.92V68.66C63.92 69.212 64.02 69.624 64.22 69.896C64.428 70.16 64.776 70.292 65.264 70.292C65.6 70.292 65.904 70.208 66.176 70.04C66.448 69.864 66.748 69.588 67.076 69.212V65.168H68.06V71H67.256L67.172 69.98H67.124C66.828 70.324 66.504 70.604 66.152 70.82C65.808 71.036 65.408 71.144 64.952 71.144ZM72.9153 71.144C72.3393 71.144 71.8073 71.056 71.3193 70.88C70.8313 70.696 70.4073 70.48 70.0473 70.232L70.5033 69.584C70.8393 69.824 71.2073 70.016 71.6073 70.16C72.0153 70.304 72.4913 70.376 73.0353 70.376C73.5313 70.376 73.8993 70.288 74.1393 70.112C74.3873 69.928 74.5113 69.712 74.5113 69.464C74.5113 69.352 74.4913 69.248 74.4513 69.152C74.4113 69.056 74.3233 68.964 74.1873 68.876C74.0593 68.788 73.8753 68.704 73.6353 68.624C73.3953 68.544 73.0793 68.464 72.6873 68.384C71.9273 68.224 71.3553 68.012 70.9713 67.748C70.5953 67.476 70.4073 67.12 70.4073 66.68C70.4073 66.448 70.4593 66.232 70.5633 66.032C70.6673 65.824 70.8193 65.648 71.0193 65.504C71.2273 65.352 71.4793 65.236 71.7753 65.156C72.0793 65.068 72.4313 65.024 72.8313 65.024C73.2793 65.024 73.7113 65.1 74.1273 65.252C74.5433 65.396 74.8953 65.568 75.1833 65.768L74.7033 66.404C74.4313 66.22 74.1313 66.072 73.8033 65.96C73.4753 65.848 73.1233 65.792 72.7473 65.792C72.2513 65.792 71.9033 65.876 71.7033 66.044C71.5033 66.212 71.4033 66.408 71.4033 66.632C71.4033 66.888 71.5353 67.084 71.7993 67.22C72.0633 67.348 72.4953 67.476 73.0953 67.604C73.5833 67.708 73.9833 67.82 74.2953 67.94C74.6073 68.052 74.8513 68.18 75.0273 68.324C75.2113 68.468 75.3353 68.628 75.3993 68.804C75.4713 68.98 75.5073 69.18 75.5073 69.404C75.5073 69.644 75.4513 69.868 75.3393 70.076C75.2273 70.284 75.0593 70.468 74.8353 70.628C74.6193 70.788 74.3473 70.912 74.0193 71C73.6993 71.096 73.3313 71.144 72.9153 71.144ZM80.1826 71V65.972H77.4706V65.168H81.1666V71H80.1826ZM80.5666 63.944C80.3426 63.944 80.1546 63.876 80.0026 63.74C79.8506 63.596 79.7746 63.408 79.7746 63.176C79.7746 62.944 79.8506 62.76 80.0026 62.624C80.1546 62.48 80.3426 62.408 80.5666 62.408C80.7906 62.408 80.9786 62.48 81.1306 62.624C81.2826 62.76 81.3586 62.944 81.3586 63.176C81.3586 63.408 81.2826 63.596 81.1306 63.74C80.9786 63.876 80.7906 63.944 80.5666 63.944ZM84.7019 71V65.168H85.5179L85.6019 66.164H85.6499C85.9539 65.836 86.2819 65.564 86.6339 65.348C86.9859 65.132 87.3899 65.024 87.8459 65.024C88.5419 65.024 89.0499 65.224 89.3699 65.624C89.6979 66.016 89.8619 66.6 89.8619 67.376V71H88.8779V67.508C88.8779 66.956 88.7739 66.548 88.5659 66.284C88.3579 66.012 88.0139 65.876 87.5339 65.876C87.3579 65.876 87.1939 65.9 87.0419 65.948C86.8979 65.988 86.7539 66.052 86.6099 66.14C86.4659 66.228 86.3179 66.34 86.1659 66.476C86.0139 66.604 85.8539 66.756 85.6859 66.932V71H84.7019ZM94.3333 73.688C93.4773 73.688 92.8133 73.548 92.3413 73.268C91.8773 72.988 91.6453 72.588 91.6453 72.068C91.6453 71.836 91.7253 71.608 91.8853 71.384C92.0533 71.16 92.2933 70.956 92.6053 70.772V70.724C92.4453 70.636 92.3053 70.516 92.1853 70.364C92.0653 70.212 92.0053 70.012 92.0053 69.764C92.0053 69.58 92.0653 69.392 92.1853 69.2C92.3053 69 92.4773 68.824 92.7013 68.672V68.624C92.5013 68.472 92.3293 68.272 92.1853 68.024C92.0493 67.768 91.9813 67.464 91.9813 67.112C91.9813 66.792 92.0413 66.504 92.1613 66.248C92.2893 65.992 92.4573 65.776 92.6653 65.6C92.8733 65.416 93.1133 65.276 93.3853 65.18C93.6653 65.076 93.9613 65.024 94.2733 65.024C94.5933 65.024 94.8813 65.072 95.1373 65.168H97.5493V65.972H96.0373C96.1733 66.108 96.2893 66.28 96.3853 66.488C96.4813 66.696 96.5293 66.916 96.5293 67.148C96.5293 67.46 96.4693 67.74 96.3493 67.988C96.2373 68.236 96.0773 68.448 95.8693 68.624C95.6693 68.792 95.4293 68.924 95.1493 69.02C94.8773 69.108 94.5853 69.152 94.2733 69.152C94.1213 69.152 93.9573 69.136 93.7812 69.104C93.6133 69.064 93.4493 69.008 93.2893 68.936C92.9853 69.128 92.8333 69.352 92.8333 69.608C92.8333 69.84 92.9373 70.012 93.1453 70.124C93.3613 70.228 93.6613 70.28 94.0453 70.28H95.3533C96.1053 70.28 96.6613 70.384 97.0213 70.592C97.3893 70.8 97.5733 71.152 97.5733 71.648C97.5733 71.92 97.4973 72.18 97.3453 72.428C97.1933 72.676 96.9773 72.892 96.6973 73.076C96.4173 73.26 96.0773 73.408 95.6773 73.52C95.2773 73.632 94.8293 73.688 94.3333 73.688ZM94.2733 68.492C94.6493 68.492 94.9653 68.368 95.2213 68.12C95.4853 67.872 95.6173 67.536 95.6173 67.112C95.6173 66.912 95.5813 66.728 95.5093 66.56C95.4373 66.392 95.3413 66.248 95.2213 66.128C95.1013 66.008 94.9573 65.916 94.7893 65.852C94.6293 65.78 94.4573 65.744 94.2733 65.744C94.0893 65.744 93.9133 65.78 93.7453 65.852C93.5853 65.916 93.4453 66.008 93.3253 66.128C93.2053 66.248 93.1093 66.392 93.0373 66.56C92.9653 66.728 92.9293 66.912 92.9293 67.112C92.9293 67.536 93.0613 67.872 93.3253 68.12C93.5893 68.368 93.9053 68.492 94.2733 68.492ZM94.4053 72.968C94.7413 72.968 95.0453 72.936 95.3173 72.872C95.5893 72.808 95.8213 72.72 96.0133 72.608C96.2053 72.504 96.3493 72.38 96.4453 72.236C96.5493 72.1 96.6013 71.956 96.6013 71.804C96.6013 71.524 96.4893 71.336 96.2653 71.24C96.0493 71.144 95.7173 71.096 95.2693 71.096H94.1293C93.9613 71.096 93.8013 71.088 93.6493 71.072C93.5053 71.064 93.3693 71.04 93.2413 71C92.9613 71.152 92.7653 71.308 92.6533 71.468C92.5493 71.636 92.4973 71.804 92.4973 71.972C92.4973 72.276 92.6573 72.516 92.9773 72.692C93.3053 72.876 93.7813 72.968 94.4053 72.968Z" fill="#569CD6"/>
<path d="M113.023 29.255V21.654H113.771L113.848 22.336H113.881C114.13 22.1013 114.416 21.907 114.739 21.753C115.069 21.599 115.399 21.522 115.729 21.522C116.088 21.522 116.404 21.588 116.675 21.72C116.954 21.8447 117.185 22.028 117.368 22.27C117.559 22.5047 117.702 22.7907 117.797 23.128C117.892 23.458 117.94 23.832 117.94 24.25C117.94 24.7047 117.874 25.1117 117.742 25.471C117.61 25.823 117.43 26.1237 117.203 26.373C116.983 26.6223 116.726 26.813 116.433 26.945C116.14 27.0697 115.832 27.132 115.509 27.132C115.26 27.132 114.988 27.0733 114.695 26.956C114.409 26.8313 114.149 26.659 113.914 26.439H113.881L113.925 27.451V29.255H113.023ZM115.355 26.373C115.839 26.373 116.235 26.186 116.543 25.812C116.851 25.438 117.005 24.9173 117.005 24.25C117.005 23.9567 116.976 23.689 116.917 23.447C116.858 23.205 116.767 22.9997 116.642 22.831C116.525 22.655 116.371 22.5193 116.18 22.424C115.989 22.3287 115.762 22.281 115.498 22.281C115.263 22.281 115.01 22.347 114.739 22.479C114.475 22.6037 114.204 22.8053 113.925 23.084V25.746C114.182 25.9733 114.438 26.1347 114.695 26.23C114.952 26.3253 115.172 26.373 115.355 26.373ZM121.896 27.132C121.544 27.132 121.206 27.0697 120.884 26.945C120.568 26.8203 120.29 26.6407 120.048 26.406C119.806 26.164 119.611 25.8707 119.465 25.526C119.325 25.174 119.256 24.778 119.256 24.338C119.256 23.8907 119.325 23.4947 119.465 23.15C119.611 22.798 119.806 22.501 120.048 22.259C120.29 22.017 120.568 21.8337 120.884 21.709C121.206 21.5843 121.544 21.522 121.896 21.522C122.248 21.522 122.581 21.5843 122.897 21.709C123.219 21.8337 123.502 22.017 123.744 22.259C123.986 22.501 124.176 22.798 124.316 23.15C124.462 23.4947 124.536 23.8907 124.536 24.338C124.536 24.778 124.462 25.174 124.316 25.526C124.176 25.8707 123.986 26.164 123.744 26.406C123.502 26.6407 123.219 26.8203 122.897 26.945C122.581 27.0697 122.248 27.132 121.896 27.132ZM121.896 26.384C122.152 26.384 122.383 26.3363 122.589 26.241C122.801 26.1383 122.981 25.999 123.128 25.823C123.282 25.6397 123.399 25.4233 123.48 25.174C123.56 24.9247 123.601 24.646 123.601 24.338C123.601 24.03 123.56 23.7513 123.48 23.502C123.399 23.2453 123.282 23.0253 123.128 22.842C122.981 22.6587 122.801 22.5193 122.589 22.424C122.383 22.3213 122.152 22.27 121.896 22.27C121.639 22.27 121.404 22.3213 121.192 22.424C120.986 22.5193 120.807 22.6587 120.653 22.842C120.506 23.0253 120.392 23.2453 120.312 23.502C120.231 23.7513 120.191 24.03 120.191 24.338C120.191 24.646 120.231 24.9247 120.312 25.174C120.392 25.4233 120.506 25.6397 120.653 25.823C120.807 25.999 120.986 26.1383 121.192 26.241C121.404 26.3363 121.639 26.384 121.896 26.384ZM129.668 27.132C129.096 27.132 128.66 26.9707 128.359 26.648C128.059 26.3253 127.908 25.845 127.908 25.207V19.905H126.005V19.168H128.81V25.273C128.81 25.669 128.906 25.955 129.096 26.131C129.287 26.2997 129.544 26.384 129.866 26.384C130.182 26.384 130.515 26.3033 130.867 26.142L131.098 26.813C130.849 26.9157 130.622 26.9927 130.416 27.044C130.211 27.1027 129.962 27.132 129.668 27.132ZM135.263 27V22.391H132.777V21.654H136.165V27H135.263ZM135.615 20.532C135.41 20.532 135.237 20.4697 135.098 20.345C134.959 20.213 134.889 20.0407 134.889 19.828C134.889 19.6153 134.959 19.4467 135.098 19.322C135.237 19.19 135.41 19.124 135.615 19.124C135.82 19.124 135.993 19.19 136.132 19.322C136.271 19.4467 136.341 19.6153 136.341 19.828C136.341 20.0407 136.271 20.213 136.132 20.345C135.993 20.4697 135.82 20.532 135.615 20.532ZM142.189 27.132C141.771 27.132 141.382 27.0697 141.023 26.945C140.671 26.8203 140.363 26.6407 140.099 26.406C139.835 26.164 139.629 25.8707 139.483 25.526C139.336 25.174 139.263 24.778 139.263 24.338C139.263 23.8907 139.34 23.4947 139.494 23.15C139.655 22.798 139.871 22.501 140.143 22.259C140.414 22.017 140.729 21.8337 141.089 21.709C141.455 21.5843 141.84 21.522 142.244 21.522C142.684 21.522 143.061 21.599 143.377 21.753C143.699 21.907 143.971 22.0903 144.191 22.303L143.74 22.886C143.52 22.6953 143.289 22.545 143.047 22.435C142.812 22.325 142.555 22.27 142.277 22.27C141.969 22.27 141.686 22.3213 141.43 22.424C141.173 22.5193 140.953 22.6587 140.77 22.842C140.594 23.0253 140.454 23.2453 140.352 23.502C140.249 23.7513 140.198 24.03 140.198 24.338C140.198 24.646 140.245 24.9247 140.341 25.174C140.443 25.4233 140.583 25.6397 140.759 25.823C140.942 25.999 141.158 26.1383 141.408 26.241C141.664 26.3363 141.947 26.384 142.255 26.384C142.585 26.384 142.885 26.3217 143.157 26.197C143.435 26.065 143.685 25.9037 143.905 25.713L144.312 26.296C144.011 26.56 143.681 26.7653 143.322 26.912C142.962 27.0587 142.585 27.132 142.189 27.132ZM146.42 29.299C146.156 29.299 145.921 29.2623 145.716 29.189L145.903 28.474C145.976 28.496 146.053 28.5143 146.134 28.529C146.222 28.5437 146.306 28.551 146.387 28.551C146.761 28.551 147.065 28.441 147.3 28.221C147.534 28.0083 147.718 27.737 147.85 27.407L148.015 27.011L145.518 21.654H146.431L147.74 24.613C147.842 24.8477 147.949 25.1007 148.059 25.372C148.176 25.6433 148.29 25.9073 148.4 26.164H148.444C148.539 25.9073 148.634 25.647 148.73 25.383C148.832 25.1117 148.928 24.855 149.016 24.613L150.182 21.654H151.04L148.686 27.44C148.583 27.704 148.466 27.9497 148.334 28.177C148.202 28.4043 148.044 28.5987 147.861 28.76C147.677 28.9287 147.465 29.0607 147.223 29.156C146.988 29.2513 146.72 29.299 146.42 29.299Z" fill="#569CD6"/>
</g>
</g>
<g clip-path="url(#clip3_1_988)">
<path d="M1 119C1 115.686 3.68629 113 7 113H521C524.314 113 527 115.686 527 119V304C527 307.314 524.314 310 521 310H7C3.68629 310 1 307.314 1 304V119Z" fill="#181818"/>
<g clip-path="url(#clip4_1_988)">
<path d="M42.0322 191.127H38.833V200H37.5273V191.127H34.335V190.047H42.0322V191.127ZM44.5752 193.499C45.1357 192.811 45.8649 192.467 46.7627 192.467C48.3258 192.467 49.1143 193.349 49.1279 195.112V200H47.8633V195.105C47.8587 194.572 47.7357 194.178 47.4941 193.923C47.2572 193.668 46.8857 193.54 46.3799 193.54C45.9697 193.54 45.6097 193.649 45.2998 193.868C44.9899 194.087 44.7484 194.374 44.5752 194.729V200H43.3105V189.5H44.5752V193.499ZM52.3955 200H51.1309V192.604H52.3955V200ZM51.0283 190.642C51.0283 190.437 51.0898 190.263 51.2129 190.122C51.3405 189.981 51.5273 189.91 51.7734 189.91C52.0195 189.91 52.2064 189.981 52.334 190.122C52.4616 190.263 52.5254 190.437 52.5254 190.642C52.5254 190.847 52.4616 191.018 52.334 191.154C52.2064 191.291 52.0195 191.359 51.7734 191.359C51.5273 191.359 51.3405 191.291 51.2129 191.154C51.0898 191.018 51.0283 190.847 51.0283 190.642ZM58.7324 198.038C58.7324 197.696 58.6025 197.432 58.3428 197.245C58.0876 197.054 57.6387 196.89 56.9961 196.753C56.3581 196.616 55.8499 196.452 55.4717 196.261C55.098 196.069 54.82 195.841 54.6377 195.577C54.46 195.313 54.3711 194.998 54.3711 194.634C54.3711 194.028 54.6263 193.515 55.1367 193.096C55.6517 192.676 56.3079 192.467 57.1055 192.467C57.944 192.467 58.623 192.683 59.1426 193.116C59.6667 193.549 59.9287 194.103 59.9287 194.777H58.6572C58.6572 194.431 58.5091 194.132 58.2129 193.882C57.9212 193.631 57.5521 193.506 57.1055 193.506C56.6452 193.506 56.2852 193.606 56.0254 193.807C55.7656 194.007 55.6357 194.269 55.6357 194.593C55.6357 194.898 55.7565 195.128 55.998 195.283C56.2396 195.438 56.6748 195.586 57.3037 195.728C57.9372 195.869 58.4499 196.037 58.8418 196.233C59.2337 196.429 59.5231 196.666 59.71 196.944C59.9014 197.218 59.9971 197.553 59.9971 197.949C59.9971 198.61 59.7327 199.141 59.2041 199.542C58.6755 199.938 57.9896 200.137 57.1465 200.137C56.554 200.137 56.0299 200.032 55.5742 199.822C55.1185 199.613 54.7607 199.321 54.501 198.947C54.2458 198.569 54.1182 198.161 54.1182 197.724H55.3828C55.4056 198.147 55.5742 198.485 55.8887 198.735C56.2077 198.981 56.627 199.104 57.1465 199.104C57.625 199.104 58.0078 199.009 58.2949 198.817C58.5866 198.621 58.7324 198.362 58.7324 198.038ZM71.666 198.257L73.0879 192.604H74.3525L72.1992 200H71.1738L69.376 194.395L67.626 200H66.6006L64.4541 192.604H65.7119L67.168 198.141L68.8906 192.604H69.9092L71.666 198.257ZM77.0186 200H75.7539V192.604H77.0186V200ZM75.6514 190.642C75.6514 190.437 75.7129 190.263 75.8359 190.122C75.9635 189.981 76.1504 189.91 76.3965 189.91C76.6426 189.91 76.8294 189.981 76.957 190.122C77.0846 190.263 77.1484 190.437 77.1484 190.642C77.1484 190.847 77.0846 191.018 76.957 191.154C76.8294 191.291 76.6426 191.359 76.3965 191.359C76.1504 191.359 75.9635 191.291 75.8359 191.154C75.7129 191.018 75.6514 190.847 75.6514 190.642ZM80.4229 200H79.1582V189.5H80.4229V200ZM83.8271 200H82.5625V189.5H83.8271V200ZM93.8965 200C93.8236 199.854 93.7643 199.594 93.7188 199.221C93.1309 199.831 92.429 200.137 91.6133 200.137C90.8841 200.137 90.2848 199.932 89.8154 199.521C89.3506 199.107 89.1182 198.583 89.1182 197.949C89.1182 197.179 89.4098 196.582 89.9932 196.158C90.5811 195.73 91.4059 195.516 92.4678 195.516H93.6982V194.935C93.6982 194.493 93.5661 194.142 93.3018 193.882C93.0374 193.618 92.6478 193.485 92.1328 193.485C91.6816 193.485 91.3034 193.599 90.998 193.827C90.6927 194.055 90.54 194.331 90.54 194.654H89.2686C89.2686 194.285 89.3984 193.93 89.6582 193.588C89.9225 193.242 90.278 192.968 90.7246 192.768C91.1758 192.567 91.6702 192.467 92.208 192.467C93.0602 192.467 93.7279 192.681 94.2109 193.109C94.694 193.533 94.9447 194.119 94.9629 194.866V198.271C94.9629 198.95 95.0495 199.49 95.2227 199.891V200H93.8965ZM91.7979 199.036C92.1943 199.036 92.5703 198.934 92.9258 198.729C93.2812 198.523 93.5387 198.257 93.6982 197.929V196.411H92.707C91.1576 196.411 90.3828 196.865 90.3828 197.771C90.3828 198.168 90.515 198.478 90.7793 198.701C91.0436 198.924 91.3831 199.036 91.7979 199.036ZM98.3193 200H97.0547V189.5H98.3193V200ZM101.724 200H100.459V189.5H101.724V200ZM103.419 196.233C103.419 195.509 103.56 194.857 103.843 194.278C104.13 193.7 104.526 193.253 105.032 192.938C105.543 192.624 106.124 192.467 106.775 192.467C107.783 192.467 108.596 192.815 109.216 193.513C109.84 194.21 110.152 195.137 110.152 196.295V196.384C110.152 197.104 110.013 197.751 109.735 198.325C109.462 198.895 109.068 199.339 108.553 199.658C108.042 199.977 107.454 200.137 106.789 200.137C105.786 200.137 104.973 199.788 104.349 199.091C103.729 198.394 103.419 197.471 103.419 196.322V196.233ZM104.69 196.384C104.69 197.204 104.88 197.863 105.258 198.359C105.641 198.856 106.151 199.104 106.789 199.104C107.432 199.104 107.942 198.854 108.32 198.353C108.699 197.847 108.888 197.14 108.888 196.233C108.888 195.422 108.694 194.766 108.307 194.265C107.924 193.759 107.413 193.506 106.775 193.506C106.151 193.506 105.647 193.754 105.265 194.251C104.882 194.748 104.69 195.459 104.69 196.384ZM118.287 198.257L119.709 192.604H120.974L118.82 200H117.795L115.997 194.395L114.247 200H113.222L111.075 192.604H112.333L113.789 198.141L115.512 192.604H116.53L118.287 198.257ZM130.305 200C130.232 199.854 130.173 199.594 130.127 199.221C129.539 199.831 128.837 200.137 128.021 200.137C127.292 200.137 126.693 199.932 126.224 199.521C125.759 199.107 125.526 198.583 125.526 197.949C125.526 197.179 125.818 196.582 126.401 196.158C126.989 195.73 127.814 195.516 128.876 195.516H130.106V194.935C130.106 194.493 129.974 194.142 129.71 193.882C129.446 193.618 129.056 193.485 128.541 193.485C128.09 193.485 127.712 193.599 127.406 193.827C127.101 194.055 126.948 194.331 126.948 194.654H125.677C125.677 194.285 125.807 193.93 126.066 193.588C126.331 193.242 126.686 192.968 127.133 192.768C127.584 192.567 128.078 192.467 128.616 192.467C129.468 192.467 130.136 192.681 130.619 193.109C131.102 193.533 131.353 194.119 131.371 194.866V198.271C131.371 198.95 131.458 199.49 131.631 199.891V200H130.305ZM128.206 199.036C128.603 199.036 128.979 198.934 129.334 198.729C129.689 198.523 129.947 198.257 130.106 197.929V196.411H129.115C127.566 196.411 126.791 196.865 126.791 197.771C126.791 198.168 126.923 198.478 127.188 198.701C127.452 198.924 127.791 199.036 128.206 199.036ZM134.55 192.604L134.591 193.533C135.156 192.822 135.894 192.467 136.806 192.467C138.369 192.467 139.157 193.349 139.171 195.112V200H137.906V195.105C137.902 194.572 137.779 194.178 137.537 193.923C137.3 193.668 136.929 193.54 136.423 193.54C136.013 193.54 135.653 193.649 135.343 193.868C135.033 194.087 134.791 194.374 134.618 194.729V200H133.354V192.604H134.55ZM143.498 198.147L145.221 192.604H146.574L143.601 201.142C143.14 202.372 142.409 202.987 141.406 202.987L141.167 202.967L140.695 202.878V201.853L141.037 201.88C141.465 201.88 141.798 201.793 142.035 201.62C142.277 201.447 142.475 201.13 142.63 200.67L142.91 199.918L140.271 192.604H141.652L143.498 198.147ZM155.748 199.269C155.256 199.847 154.534 200.137 153.581 200.137C152.793 200.137 152.191 199.909 151.776 199.453C151.366 198.993 151.159 198.314 151.154 197.416V192.604H152.419V197.382C152.419 198.503 152.875 199.063 153.786 199.063C154.752 199.063 155.395 198.703 155.714 197.983V192.604H156.979V200H155.775L155.748 199.269ZM163.213 198.038C163.213 197.696 163.083 197.432 162.823 197.245C162.568 197.054 162.119 196.89 161.477 196.753C160.839 196.616 160.33 196.452 159.952 196.261C159.578 196.069 159.3 195.841 159.118 195.577C158.94 195.313 158.852 194.998 158.852 194.634C158.852 194.028 159.107 193.515 159.617 193.096C160.132 192.676 160.788 192.467 161.586 192.467C162.424 192.467 163.104 192.683 163.623 193.116C164.147 193.549 164.409 194.103 164.409 194.777H163.138C163.138 194.431 162.99 194.132 162.693 193.882C162.402 193.631 162.033 193.506 161.586 193.506C161.126 193.506 160.766 193.606 160.506 193.807C160.246 194.007 160.116 194.269 160.116 194.593C160.116 194.898 160.237 195.128 160.479 195.283C160.72 195.438 161.155 195.586 161.784 195.728C162.418 195.869 162.93 196.037 163.322 196.233C163.714 196.429 164.004 196.666 164.19 196.944C164.382 197.218 164.478 197.553 164.478 197.949C164.478 198.61 164.213 199.141 163.685 199.542C163.156 199.938 162.47 200.137 161.627 200.137C161.035 200.137 160.51 200.032 160.055 199.822C159.599 199.613 159.241 199.321 158.981 198.947C158.726 198.569 158.599 198.161 158.599 197.724H159.863C159.886 198.147 160.055 198.485 160.369 198.735C160.688 198.981 161.107 199.104 161.627 199.104C162.105 199.104 162.488 199.009 162.775 198.817C163.067 198.621 163.213 198.362 163.213 198.038ZM169.194 200.137C168.192 200.137 167.376 199.809 166.747 199.152C166.118 198.492 165.804 197.61 165.804 196.507V196.274C165.804 195.541 165.943 194.887 166.221 194.312C166.503 193.734 166.895 193.283 167.396 192.959C167.902 192.631 168.449 192.467 169.037 192.467C169.999 192.467 170.746 192.784 171.279 193.417C171.812 194.05 172.079 194.957 172.079 196.138V196.664H167.068C167.087 197.393 167.299 197.983 167.704 198.435C168.114 198.881 168.634 199.104 169.263 199.104C169.709 199.104 170.088 199.013 170.397 198.831C170.707 198.649 170.979 198.407 171.211 198.106L171.983 198.708C171.364 199.66 170.434 200.137 169.194 200.137ZM169.037 193.506C168.527 193.506 168.098 193.693 167.752 194.066C167.406 194.436 167.191 194.955 167.109 195.625H170.814V195.529C170.778 194.887 170.605 194.39 170.295 194.039C169.985 193.684 169.566 193.506 169.037 193.506ZM177.124 193.738C176.933 193.706 176.725 193.69 176.502 193.69C175.673 193.69 175.11 194.044 174.813 194.75V200H173.549V192.604H174.779L174.8 193.458C175.215 192.797 175.802 192.467 176.563 192.467C176.81 192.467 176.996 192.499 177.124 192.562V193.738ZM186.332 200C186.259 199.854 186.2 199.594 186.154 199.221C185.566 199.831 184.865 200.137 184.049 200.137C183.32 200.137 182.72 199.932 182.251 199.521C181.786 199.107 181.554 198.583 181.554 197.949C181.554 197.179 181.845 196.582 182.429 196.158C183.017 195.73 183.841 195.516 184.903 195.516H186.134V194.935C186.134 194.493 186.002 194.142 185.737 193.882C185.473 193.618 185.083 193.485 184.568 193.485C184.117 193.485 183.739 193.599 183.434 193.827C183.128 194.055 182.976 194.331 182.976 194.654H181.704C181.704 194.285 181.834 193.93 182.094 193.588C182.358 193.242 182.714 192.968 183.16 192.768C183.611 192.567 184.106 192.467 184.644 192.467C185.496 192.467 186.163 192.681 186.646 193.109C187.13 193.533 187.38 194.119 187.398 194.866V198.271C187.398 198.95 187.485 199.49 187.658 199.891V200H186.332ZM184.233 199.036C184.63 199.036 185.006 198.934 185.361 198.729C185.717 198.523 185.974 198.257 186.134 197.929V196.411H185.143C183.593 196.411 182.818 196.865 182.818 197.771C182.818 198.168 182.951 198.478 183.215 198.701C183.479 198.924 183.819 199.036 184.233 199.036ZM192.348 199.104C192.799 199.104 193.193 198.968 193.53 198.694C193.868 198.421 194.054 198.079 194.091 197.669H195.287C195.264 198.093 195.118 198.496 194.85 198.879C194.581 199.262 194.221 199.567 193.77 199.795C193.323 200.023 192.849 200.137 192.348 200.137C191.34 200.137 190.538 199.802 189.941 199.132C189.349 198.457 189.053 197.537 189.053 196.37V196.158C189.053 195.438 189.185 194.798 189.449 194.237C189.714 193.677 190.092 193.242 190.584 192.932C191.081 192.622 191.666 192.467 192.341 192.467C193.17 192.467 193.858 192.715 194.405 193.212C194.957 193.709 195.251 194.354 195.287 195.146H194.091C194.054 194.668 193.872 194.276 193.544 193.971C193.22 193.661 192.819 193.506 192.341 193.506C191.698 193.506 191.199 193.738 190.844 194.203C190.493 194.663 190.317 195.331 190.317 196.206V196.445C190.317 197.298 190.493 197.954 190.844 198.414C191.195 198.874 191.696 199.104 192.348 199.104ZM199.676 199.104C200.127 199.104 200.521 198.968 200.858 198.694C201.196 198.421 201.382 198.079 201.419 197.669H202.615C202.592 198.093 202.447 198.496 202.178 198.879C201.909 199.262 201.549 199.567 201.098 199.795C200.651 200.023 200.177 200.137 199.676 200.137C198.669 200.137 197.867 199.802 197.27 199.132C196.677 198.457 196.381 197.537 196.381 196.37V196.158C196.381 195.438 196.513 194.798 196.777 194.237C197.042 193.677 197.42 193.242 197.912 192.932C198.409 192.622 198.994 192.467 199.669 192.467C200.498 192.467 201.187 192.715 201.733 193.212C202.285 193.709 202.579 194.354 202.615 195.146H201.419C201.382 194.668 201.2 194.276 200.872 193.971C200.549 193.661 200.147 193.506 199.669 193.506C199.026 193.506 198.527 193.738 198.172 194.203C197.821 194.663 197.646 195.331 197.646 196.206V196.445C197.646 197.298 197.821 197.954 198.172 198.414C198.523 198.874 199.024 199.104 199.676 199.104ZM207.106 200.137C206.104 200.137 205.288 199.809 204.659 199.152C204.03 198.492 203.716 197.61 203.716 196.507V196.274C203.716 195.541 203.855 194.887 204.133 194.312C204.415 193.734 204.807 193.283 205.309 192.959C205.814 192.631 206.361 192.467 206.949 192.467C207.911 192.467 208.658 192.784 209.191 193.417C209.725 194.05 209.991 194.957 209.991 196.138V196.664H204.98C204.999 197.393 205.211 197.983 205.616 198.435C206.026 198.881 206.546 199.104 207.175 199.104C207.621 199.104 208 199.013 208.31 198.831C208.619 198.649 208.891 198.407 209.123 198.106L209.896 198.708C209.276 199.66 208.346 200.137 207.106 200.137ZM206.949 193.506C206.439 193.506 206.01 193.693 205.664 194.066C205.318 194.436 205.104 194.955 205.021 195.625H208.727V195.529C208.69 194.887 208.517 194.39 208.207 194.039C207.897 193.684 207.478 193.506 206.949 193.506ZM215.768 198.038C215.768 197.696 215.638 197.432 215.378 197.245C215.123 197.054 214.674 196.89 214.031 196.753C213.393 196.616 212.885 196.452 212.507 196.261C212.133 196.069 211.855 195.841 211.673 195.577C211.495 195.313 211.406 194.998 211.406 194.634C211.406 194.028 211.661 193.515 212.172 193.096C212.687 192.676 213.343 192.467 214.141 192.467C214.979 192.467 215.658 192.683 216.178 193.116C216.702 193.549 216.964 194.103 216.964 194.777H215.692C215.692 194.431 215.544 194.132 215.248 193.882C214.956 193.631 214.587 193.506 214.141 193.506C213.68 193.506 213.32 193.606 213.061 193.807C212.801 194.007 212.671 194.269 212.671 194.593C212.671 194.898 212.792 195.128 213.033 195.283C213.275 195.438 213.71 195.586 214.339 195.728C214.972 195.869 215.485 196.037 215.877 196.233C216.269 196.429 216.558 196.666 216.745 196.944C216.937 197.218 217.032 197.553 217.032 197.949C217.032 198.61 216.768 199.141 216.239 199.542C215.711 199.938 215.025 200.137 214.182 200.137C213.589 200.137 213.065 200.032 212.609 199.822C212.154 199.613 211.796 199.321 211.536 198.947C211.281 198.569 211.153 198.161 211.153 197.724H212.418C212.441 198.147 212.609 198.485 212.924 198.735C213.243 198.981 213.662 199.104 214.182 199.104C214.66 199.104 215.043 199.009 215.33 198.817C215.622 198.621 215.768 198.362 215.768 198.038ZM222.986 198.038C222.986 197.696 222.856 197.432 222.597 197.245C222.341 197.054 221.893 196.89 221.25 196.753C220.612 196.616 220.104 196.452 219.726 196.261C219.352 196.069 219.074 195.841 218.892 195.577C218.714 195.313 218.625 194.998 218.625 194.634C218.625 194.028 218.88 193.515 219.391 193.096C219.906 192.676 220.562 192.467 221.359 192.467C222.198 192.467 222.877 192.683 223.396 193.116C223.921 193.549 224.183 194.103 224.183 194.777H222.911C222.911 194.431 222.763 194.132 222.467 193.882C222.175 193.631 221.806 193.506 221.359 193.506C220.899 193.506 220.539 193.606 220.279 193.807C220.02 194.007 219.89 194.269 219.89 194.593C219.89 194.898 220.01 195.128 220.252 195.283C220.493 195.438 220.929 195.586 221.558 195.728C222.191 195.869 222.704 196.037 223.096 196.233C223.488 196.429 223.777 196.666 223.964 196.944C224.155 197.218 224.251 197.553 224.251 197.949C224.251 198.61 223.987 199.141 223.458 199.542C222.929 199.938 222.243 200.137 221.4 200.137C220.808 200.137 220.284 200.032 219.828 199.822C219.372 199.613 219.015 199.321 218.755 198.947C218.5 198.569 218.372 198.161 218.372 197.724H219.637C219.66 198.147 219.828 198.485 220.143 198.735C220.462 198.981 220.881 199.104 221.4 199.104C221.879 199.104 222.262 199.009 222.549 198.817C222.84 198.621 222.986 198.362 222.986 198.038ZM231.087 190.812V192.604H232.468V193.581H231.087V198.168C231.087 198.464 231.148 198.688 231.271 198.838C231.395 198.984 231.604 199.057 231.9 199.057C232.046 199.057 232.247 199.029 232.502 198.975V200C232.169 200.091 231.846 200.137 231.531 200.137C230.966 200.137 230.54 199.966 230.253 199.624C229.966 199.282 229.822 198.797 229.822 198.168V193.581H228.476V192.604H229.822V190.812H231.087ZM233.479 196.233C233.479 195.509 233.621 194.857 233.903 194.278C234.19 193.7 234.587 193.253 235.093 192.938C235.603 192.624 236.184 192.467 236.836 192.467C237.843 192.467 238.657 192.815 239.276 193.513C239.901 194.21 240.213 195.137 240.213 196.295V196.384C240.213 197.104 240.074 197.751 239.796 198.325C239.522 198.895 239.128 199.339 238.613 199.658C238.103 199.977 237.515 200.137 236.85 200.137C235.847 200.137 235.034 199.788 234.409 199.091C233.789 198.394 233.479 197.471 233.479 196.322V196.233ZM234.751 196.384C234.751 197.204 234.94 197.863 235.318 198.359C235.701 198.856 236.212 199.104 236.85 199.104C237.492 199.104 238.003 198.854 238.381 198.353C238.759 197.847 238.948 197.14 238.948 196.233C238.948 195.422 238.755 194.766 238.367 194.265C237.984 193.759 237.474 193.506 236.836 193.506C236.212 193.506 235.708 193.754 235.325 194.251C234.942 194.748 234.751 195.459 234.751 196.384ZM246.987 190.812V192.604H248.368V193.581H246.987V198.168C246.987 198.464 247.049 198.688 247.172 198.838C247.295 198.984 247.505 199.057 247.801 199.057C247.947 199.057 248.147 199.029 248.402 198.975V200C248.07 200.091 247.746 200.137 247.432 200.137C246.867 200.137 246.44 199.966 246.153 199.624C245.866 199.282 245.723 198.797 245.723 198.168V193.581H244.376V192.604H245.723V190.812H246.987ZM251.116 193.499C251.677 192.811 252.406 192.467 253.304 192.467C254.867 192.467 255.655 193.349 255.669 195.112V200H254.404V195.105C254.4 194.572 254.277 194.178 254.035 193.923C253.798 193.668 253.427 193.54 252.921 193.54C252.511 193.54 252.151 193.649 251.841 193.868C251.531 194.087 251.289 194.374 251.116 194.729V200H249.852V189.5H251.116V193.499ZM260.632 200.137C259.629 200.137 258.813 199.809 258.185 199.152C257.556 198.492 257.241 197.61 257.241 196.507V196.274C257.241 195.541 257.38 194.887 257.658 194.312C257.941 193.734 258.333 193.283 258.834 192.959C259.34 192.631 259.887 192.467 260.475 192.467C261.436 192.467 262.184 192.784 262.717 193.417C263.25 194.05 263.517 194.957 263.517 196.138V196.664H258.506C258.524 197.393 258.736 197.983 259.142 198.435C259.552 198.881 260.071 199.104 260.7 199.104C261.147 199.104 261.525 199.013 261.835 198.831C262.145 198.649 262.416 198.407 262.648 198.106L263.421 198.708C262.801 199.66 261.871 200.137 260.632 200.137ZM260.475 193.506C259.964 193.506 259.536 193.693 259.189 194.066C258.843 194.436 258.629 194.955 258.547 195.625H262.252V195.529C262.215 194.887 262.042 194.39 261.732 194.039C261.423 193.684 261.003 193.506 260.475 193.506ZM274.721 196.384C274.721 197.514 274.461 198.423 273.941 199.111C273.422 199.795 272.725 200.137 271.85 200.137C270.915 200.137 270.193 199.806 269.683 199.146L269.621 200H268.459V189.5H269.724V193.417C270.234 192.784 270.938 192.467 271.836 192.467C272.734 192.467 273.438 192.806 273.948 193.485C274.463 194.164 274.721 195.094 274.721 196.274V196.384ZM273.456 196.24C273.456 195.379 273.29 194.714 272.957 194.244C272.624 193.775 272.146 193.54 271.521 193.54C270.688 193.54 270.088 193.927 269.724 194.702V197.901C270.111 198.676 270.715 199.063 271.535 199.063C272.141 199.063 272.613 198.829 272.95 198.359C273.287 197.89 273.456 197.184 273.456 196.24ZM280.887 199.269C280.395 199.847 279.672 200.137 278.72 200.137C277.931 200.137 277.33 199.909 276.915 199.453C276.505 198.993 276.298 198.314 276.293 197.416V192.604H277.558V197.382C277.558 198.503 278.013 199.063 278.925 199.063C279.891 199.063 280.534 198.703 280.853 197.983V192.604H282.117V200H280.914L280.887 199.269ZM287.012 199.104C287.463 199.104 287.857 198.968 288.194 198.694C288.532 198.421 288.718 198.079 288.755 197.669H289.951C289.928 198.093 289.783 198.496 289.514 198.879C289.245 199.262 288.885 199.567 288.434 199.795C287.987 200.023 287.513 200.137 287.012 200.137C286.005 200.137 285.202 199.802 284.605 199.132C284.013 198.457 283.717 197.537 283.717 196.37V196.158C283.717 195.438 283.849 194.798 284.113 194.237C284.378 193.677 284.756 193.242 285.248 192.932C285.745 192.622 286.33 192.467 287.005 192.467C287.834 192.467 288.522 192.715 289.069 193.212C289.621 193.709 289.915 194.354 289.951 195.146H288.755C288.718 194.668 288.536 194.276 288.208 193.971C287.884 193.661 287.483 193.506 287.005 193.506C286.362 193.506 285.863 193.738 285.508 194.203C285.157 194.663 284.981 195.331 284.981 196.206V196.445C284.981 197.298 285.157 197.954 285.508 198.414C285.859 198.874 286.36 199.104 287.012 199.104ZM293.438 196.575L292.645 197.402V200H291.38V189.5H292.645V195.851L293.321 195.037L295.625 192.604H297.163L294.285 195.693L297.498 200H296.015L293.438 196.575ZM301.401 200.137C300.399 200.137 299.583 199.809 298.954 199.152C298.325 198.492 298.011 197.61 298.011 196.507V196.274C298.011 195.541 298.15 194.887 298.428 194.312C298.71 193.734 299.102 193.283 299.604 192.959C300.109 192.631 300.656 192.467 301.244 192.467C302.206 192.467 302.953 192.784 303.486 193.417C304.02 194.05 304.286 194.957 304.286 196.138V196.664H299.275C299.294 197.393 299.506 197.983 299.911 198.435C300.321 198.881 300.841 199.104 301.47 199.104C301.916 199.104 302.295 199.013 302.604 198.831C302.914 198.649 303.186 198.407 303.418 198.106L304.19 198.708C303.571 199.66 302.641 200.137 301.401 200.137ZM301.244 193.506C300.734 193.506 300.305 193.693 299.959 194.066C299.613 194.436 299.398 194.955 299.316 195.625H303.021V195.529C302.985 194.887 302.812 194.39 302.502 194.039C302.192 193.684 301.773 193.506 301.244 193.506ZM307.472 190.812V192.604H308.853V193.581H307.472V198.168C307.472 198.464 307.533 198.688 307.656 198.838C307.779 198.984 307.989 199.057 308.285 199.057C308.431 199.057 308.632 199.029 308.887 198.975V200C308.554 200.091 308.23 200.137 307.916 200.137C307.351 200.137 306.925 199.966 306.638 199.624C306.351 199.282 306.207 198.797 306.207 198.168V193.581H304.86V192.604H306.207V190.812H307.472ZM315.005 192.604L315.046 193.533C315.611 192.822 316.349 192.467 317.261 192.467C318.824 192.467 319.612 193.349 319.626 195.112V200H318.361V195.105C318.357 194.572 318.234 194.178 317.992 193.923C317.755 193.668 317.384 193.54 316.878 193.54C316.468 193.54 316.108 193.649 315.798 193.868C315.488 194.087 315.246 194.374 315.073 194.729V200H313.809V192.604H315.005ZM326.1 200C326.027 199.854 325.967 199.594 325.922 199.221C325.334 199.831 324.632 200.137 323.816 200.137C323.087 200.137 322.488 199.932 322.019 199.521C321.554 199.107 321.321 198.583 321.321 197.949C321.321 197.179 321.613 196.582 322.196 196.158C322.784 195.73 323.609 195.516 324.671 195.516H325.901V194.935C325.901 194.493 325.769 194.142 325.505 193.882C325.241 193.618 324.851 193.485 324.336 193.485C323.885 193.485 323.507 193.599 323.201 193.827C322.896 194.055 322.743 194.331 322.743 194.654H321.472C321.472 194.285 321.602 193.93 321.861 193.588C322.126 193.242 322.481 192.968 322.928 192.768C323.379 192.567 323.873 192.467 324.411 192.467C325.263 192.467 325.931 192.681 326.414 193.109C326.897 193.533 327.148 194.119 327.166 194.866V198.271C327.166 198.95 327.253 199.49 327.426 199.891V200H326.1ZM324.001 199.036C324.397 199.036 324.773 198.934 325.129 198.729C325.484 198.523 325.742 198.257 325.901 197.929V196.411H324.91C323.361 196.411 322.586 196.865 322.586 197.771C322.586 198.168 322.718 198.478 322.982 198.701C323.247 198.924 323.586 199.036 324.001 199.036ZM330.338 192.604L330.372 193.424C330.914 192.786 331.646 192.467 332.566 192.467C333.601 192.467 334.305 192.863 334.679 193.656C334.925 193.301 335.244 193.014 335.636 192.795C336.032 192.576 336.499 192.467 337.037 192.467C338.66 192.467 339.484 193.326 339.512 195.044V200H338.247V195.119C338.247 194.59 338.126 194.196 337.885 193.937C337.643 193.672 337.238 193.54 336.668 193.54C336.199 193.54 335.809 193.681 335.499 193.964C335.189 194.242 335.009 194.618 334.959 195.092V200H333.688V195.153C333.688 194.078 333.161 193.54 332.108 193.54C331.279 193.54 330.712 193.893 330.406 194.6V200H329.142V192.604H330.338ZM344.495 200.137C343.493 200.137 342.677 199.809 342.048 199.152C341.419 198.492 341.104 197.61 341.104 196.507V196.274C341.104 195.541 341.243 194.887 341.521 194.312C341.804 193.734 342.196 193.283 342.697 192.959C343.203 192.631 343.75 192.467 344.338 192.467C345.299 192.467 346.047 192.784 346.58 193.417C347.113 194.05 347.38 194.957 347.38 196.138V196.664H342.369C342.387 197.393 342.599 197.983 343.005 198.435C343.415 198.881 343.935 199.104 344.563 199.104C345.01 199.104 345.388 199.013 345.698 198.831C346.008 198.649 346.279 198.407 346.512 198.106L347.284 198.708C346.664 199.66 345.735 200.137 344.495 200.137ZM344.338 193.506C343.827 193.506 343.399 193.693 343.053 194.066C342.706 194.436 342.492 194.955 342.41 195.625H346.115V195.529C346.079 194.887 345.906 194.39 345.596 194.039C345.286 193.684 344.867 193.506 344.338 193.506ZM348.542 196.24C348.542 195.105 348.811 194.194 349.349 193.506C349.886 192.813 350.59 192.467 351.461 192.467C352.327 192.467 353.013 192.763 353.519 193.355V189.5H354.783V200H353.621L353.56 199.207C353.054 199.827 352.35 200.137 351.447 200.137C350.59 200.137 349.891 199.786 349.349 199.084C348.811 198.382 348.542 197.466 348.542 196.336V196.24ZM349.807 196.384C349.807 197.222 349.98 197.879 350.326 198.353C350.673 198.826 351.151 199.063 351.762 199.063C352.564 199.063 353.149 198.703 353.519 197.983V194.586C353.14 193.889 352.559 193.54 351.775 193.54C351.156 193.54 350.673 193.779 350.326 194.258C349.98 194.736 349.807 195.445 349.807 196.384ZM360.997 190.259L360.854 192.774H359.972L359.979 189.5H360.997V190.259ZM366.896 200C366.824 199.854 366.764 199.594 366.719 199.221C366.131 199.831 365.429 200.137 364.613 200.137C363.884 200.137 363.285 199.932 362.815 199.521C362.351 199.107 362.118 198.583 362.118 197.949C362.118 197.179 362.41 196.582 362.993 196.158C363.581 195.73 364.406 195.516 365.468 195.516H366.698V194.935C366.698 194.493 366.566 194.142 366.302 193.882C366.037 193.618 365.648 193.485 365.133 193.485C364.682 193.485 364.303 193.599 363.998 193.827C363.693 194.055 363.54 194.331 363.54 194.654H362.269C362.269 194.285 362.398 193.93 362.658 193.588C362.923 193.242 363.278 192.968 363.725 192.768C364.176 192.567 364.67 192.467 365.208 192.467C366.06 192.467 366.728 192.681 367.211 193.109C367.694 193.533 367.945 194.119 367.963 194.866V198.271C367.963 198.95 368.049 199.49 368.223 199.891V200H366.896ZM364.798 199.036C365.194 199.036 365.57 198.934 365.926 198.729C366.281 198.523 366.539 198.257 366.698 197.929V196.411H365.707C364.158 196.411 363.383 196.865 363.383 197.771C363.383 198.168 363.515 198.478 363.779 198.701C364.044 198.924 364.383 199.036 364.798 199.036ZM372.276 198.284L374.108 192.604H375.4L372.748 200H371.784L369.104 192.604H370.396L372.276 198.284ZM381.074 200C381.001 199.854 380.942 199.594 380.896 199.221C380.309 199.831 379.607 200.137 378.791 200.137C378.062 200.137 377.463 199.932 376.993 199.521C376.528 199.107 376.296 198.583 376.296 197.949C376.296 197.179 376.588 196.582 377.171 196.158C377.759 195.73 378.584 195.516 379.646 195.516H380.876V194.935C380.876 194.493 380.744 194.142 380.479 193.882C380.215 193.618 379.826 193.485 379.311 193.485C378.859 193.485 378.481 193.599 378.176 193.827C377.87 194.055 377.718 194.331 377.718 194.654H376.446C376.446 194.285 376.576 193.93 376.836 193.588C377.1 193.242 377.456 192.968 377.902 192.768C378.354 192.567 378.848 192.467 379.386 192.467C380.238 192.467 380.906 192.681 381.389 193.109C381.872 193.533 382.122 194.119 382.141 194.866V198.271C382.141 198.95 382.227 199.49 382.4 199.891V200H381.074ZM378.976 199.036C379.372 199.036 379.748 198.934 380.104 198.729C380.459 198.523 380.716 198.257 380.876 197.929V196.411H379.885C378.335 196.411 377.561 196.865 377.561 197.771C377.561 198.168 377.693 198.478 377.957 198.701C378.221 198.924 378.561 199.036 378.976 199.036ZM385.839 190.812V192.604H387.22V193.581H385.839V198.168C385.839 198.464 385.9 198.688 386.023 198.838C386.146 198.984 386.356 199.057 386.652 199.057C386.798 199.057 386.999 199.029 387.254 198.975V200C386.921 200.091 386.598 200.137 386.283 200.137C385.718 200.137 385.292 199.966 385.005 199.624C384.718 199.282 384.574 198.797 384.574 198.168V193.581H383.228V192.604H384.574V190.812H385.839ZM393.27 200C393.197 199.854 393.137 199.594 393.092 199.221C392.504 199.831 391.802 200.137 390.986 200.137C390.257 200.137 389.658 199.932 389.188 199.521C388.724 199.107 388.491 198.583 388.491 197.949C388.491 197.179 388.783 196.582 389.366 196.158C389.954 195.73 390.779 195.516 391.841 195.516H393.071V194.935C393.071 194.493 392.939 194.142 392.675 193.882C392.41 193.618 392.021 193.485 391.506 193.485C391.055 193.485 390.676 193.599 390.371 193.827C390.066 194.055 389.913 194.331 389.913 194.654H388.642C388.642 194.285 388.771 193.93 389.031 193.588C389.296 193.242 389.651 192.968 390.098 192.768C390.549 192.567 391.043 192.467 391.581 192.467C392.433 192.467 393.101 192.681 393.584 193.109C394.067 193.533 394.318 194.119 394.336 194.866V198.271C394.336 198.95 394.423 199.49 394.596 199.891V200H393.27ZM391.171 199.036C391.567 199.036 391.943 198.934 392.299 198.729C392.654 198.523 392.912 198.257 393.071 197.929V196.411H392.08C390.531 196.411 389.756 196.865 389.756 197.771C389.756 198.168 389.888 198.478 390.152 198.701C390.417 198.924 390.756 199.036 391.171 199.036ZM399.894 193.738C399.702 193.706 399.495 193.69 399.271 193.69C398.442 193.69 397.879 194.044 397.583 194.75V200H396.318V192.604H397.549L397.569 193.458C397.984 192.797 398.572 192.467 399.333 192.467C399.579 192.467 399.766 192.499 399.894 192.562V193.738ZM405.369 198.038C405.369 197.696 405.239 197.432 404.979 197.245C404.724 197.054 404.275 196.89 403.633 196.753C402.995 196.616 402.487 196.452 402.108 196.261C401.735 196.069 401.457 195.841 401.274 195.577C401.097 195.313 401.008 194.998 401.008 194.634C401.008 194.028 401.263 193.515 401.773 193.096C402.288 192.676 402.945 192.467 403.742 192.467C404.581 192.467 405.26 192.683 405.779 193.116C406.303 193.549 406.565 194.103 406.565 194.777H405.294C405.294 194.431 405.146 194.132 404.85 193.882C404.558 193.631 404.189 193.506 403.742 193.506C403.282 193.506 402.922 193.606 402.662 193.807C402.402 194.007 402.272 194.269 402.272 194.593C402.272 194.898 402.393 195.128 402.635 195.283C402.876 195.438 403.312 195.586 403.94 195.728C404.574 195.869 405.087 196.037 405.479 196.233C405.87 196.429 406.16 196.666 406.347 196.944C406.538 197.218 406.634 197.553 406.634 197.949C406.634 198.61 406.369 199.141 405.841 199.542C405.312 199.938 404.626 200.137 403.783 200.137C403.191 200.137 402.667 200.032 402.211 199.822C401.755 199.613 401.397 199.321 401.138 198.947C400.882 198.569 400.755 198.161 400.755 197.724H402.02C402.042 198.147 402.211 198.485 402.525 198.735C402.844 198.981 403.264 199.104 403.783 199.104C404.262 199.104 404.645 199.009 404.932 198.817C405.223 198.621 405.369 198.362 405.369 198.038ZM409.054 190.259L408.91 192.774H408.028L408.035 189.5H409.054V190.259Z" fill="#666666"/>
<path d="M42.5518 157.66H37.1904L35.9863 161H34.2461L39.1328 148.203H40.6094L45.5049 161H43.7734L42.5518 157.66ZM37.7002 156.271H42.0508L39.8711 150.286L37.7002 156.271ZM48.7393 161H47.1133V147.5H48.7393V161ZM53.1162 161H51.4902V147.5H53.1162V161ZM55.2959 156.157C55.2959 155.226 55.4775 154.388 55.8408 153.644C56.21 152.899 56.7197 152.325 57.3701 151.921C58.0264 151.517 58.7734 151.314 59.6113 151.314C60.9062 151.314 61.9521 151.763 62.749 152.659C63.5518 153.556 63.9531 154.748 63.9531 156.236V156.351C63.9531 157.276 63.7744 158.108 63.417 158.847C63.0654 159.579 62.5586 160.15 61.8965 160.561C61.2402 160.971 60.4844 161.176 59.6289 161.176C58.3398 161.176 57.2939 160.728 56.4912 159.831C55.6943 158.935 55.2959 157.748 55.2959 156.271V156.157ZM56.9307 156.351C56.9307 157.405 57.1738 158.252 57.6602 158.891C58.1523 159.529 58.8086 159.849 59.6289 159.849C60.4551 159.849 61.1113 159.526 61.5977 158.882C62.084 158.231 62.3271 157.323 62.3271 156.157C62.3271 155.114 62.0781 154.271 61.5801 153.626C61.0879 152.976 60.4316 152.65 59.6113 152.65C58.8086 152.65 58.1611 152.97 57.6689 153.608C57.1768 154.247 56.9307 155.161 56.9307 156.351ZM74.4121 158.759L76.2402 151.49H77.8662L75.0977 161H73.7793L71.4678 153.793L69.2178 161H67.8994L65.1396 151.49H66.7568L68.6289 158.609L70.8438 151.49H72.1533L74.4121 158.759ZM92.0254 156.351C92.0254 157.798 91.6943 158.964 91.0322 159.849C90.3701 160.733 89.4736 161.176 88.3428 161.176C87.1885 161.176 86.2803 160.81 85.6182 160.077V164.656H83.9922V151.49H85.4775L85.5566 152.545C86.2188 151.725 87.1387 151.314 88.3164 151.314C89.459 151.314 90.3613 151.745 91.0234 152.606C91.6914 153.468 92.0254 154.666 92.0254 156.201V156.351ZM90.3994 156.166C90.3994 155.094 90.1709 154.247 89.7139 153.626C89.2568 153.005 88.6299 152.694 87.833 152.694C86.8486 152.694 86.1104 153.131 85.6182 154.004V158.548C86.1045 159.415 86.8486 159.849 87.8506 159.849C88.6299 159.849 89.248 159.541 89.7051 158.926C90.168 158.305 90.3994 157.385 90.3994 156.166ZM99.9707 160.06C99.3379 160.804 98.4092 161.176 97.1846 161.176C96.1709 161.176 95.3975 160.883 94.8643 160.297C94.3369 159.705 94.0703 158.832 94.0645 157.678V151.49H95.6904V157.634C95.6904 159.075 96.2764 159.796 97.4482 159.796C98.6904 159.796 99.5166 159.333 99.9268 158.407V151.49H101.553V161H100.006L99.9707 160.06ZM112.082 156.351C112.082 157.804 111.748 158.973 111.08 159.857C110.412 160.736 109.516 161.176 108.391 161.176C107.189 161.176 106.261 160.751 105.604 159.901L105.525 161H104.031V147.5H105.657V152.536C106.313 151.722 107.219 151.314 108.373 151.314C109.527 151.314 110.433 151.751 111.089 152.624C111.751 153.497 112.082 154.692 112.082 156.21V156.351ZM110.456 156.166C110.456 155.059 110.242 154.203 109.814 153.6C109.387 152.996 108.771 152.694 107.969 152.694C106.896 152.694 106.126 153.192 105.657 154.188V158.302C106.155 159.298 106.932 159.796 107.986 159.796C108.766 159.796 109.372 159.494 109.806 158.891C110.239 158.287 110.456 157.379 110.456 156.166ZM115.905 161H114.279V147.5H115.905V161ZM120.282 161H118.656V151.49H120.282V161ZM118.524 148.968C118.524 148.704 118.604 148.481 118.762 148.3C118.926 148.118 119.166 148.027 119.482 148.027C119.799 148.027 120.039 148.118 120.203 148.3C120.367 148.481 120.449 148.704 120.449 148.968C120.449 149.231 120.367 149.451 120.203 149.627C120.039 149.803 119.799 149.891 119.482 149.891C119.166 149.891 118.926 149.803 118.762 149.627C118.604 149.451 118.524 149.231 118.524 148.968ZM126.707 159.849C127.287 159.849 127.794 159.673 128.228 159.321C128.661 158.97 128.901 158.53 128.948 158.003H130.486C130.457 158.548 130.27 159.066 129.924 159.559C129.578 160.051 129.115 160.443 128.535 160.736C127.961 161.029 127.352 161.176 126.707 161.176C125.412 161.176 124.381 160.745 123.613 159.884C122.852 159.017 122.471 157.833 122.471 156.333V156.061C122.471 155.135 122.641 154.312 122.98 153.591C123.32 152.87 123.807 152.311 124.439 151.912C125.078 151.514 125.831 151.314 126.698 151.314C127.765 151.314 128.649 151.634 129.353 152.272C130.062 152.911 130.439 153.74 130.486 154.76H128.948C128.901 154.145 128.667 153.641 128.245 153.248C127.829 152.85 127.313 152.65 126.698 152.65C125.872 152.65 125.23 152.949 124.773 153.547C124.322 154.139 124.097 154.997 124.097 156.122V156.43C124.097 157.525 124.322 158.369 124.773 158.961C125.225 159.553 125.869 159.849 126.707 159.849ZM146.447 156.939C146.289 158.293 145.788 159.339 144.944 160.077C144.106 160.81 142.99 161.176 141.596 161.176C140.084 161.176 138.871 160.634 137.957 159.55C137.049 158.466 136.595 157.016 136.595 155.199V153.969C136.595 152.779 136.806 151.733 137.228 150.831C137.655 149.929 138.259 149.237 139.038 148.757C139.817 148.271 140.72 148.027 141.745 148.027C143.104 148.027 144.194 148.408 145.015 149.17C145.835 149.926 146.312 150.975 146.447 152.316H144.751C144.604 151.297 144.285 150.559 143.793 150.102C143.307 149.645 142.624 149.416 141.745 149.416C140.667 149.416 139.82 149.814 139.205 150.611C138.596 151.408 138.291 152.542 138.291 154.013V155.252C138.291 156.641 138.581 157.745 139.161 158.565C139.741 159.386 140.553 159.796 141.596 159.796C142.533 159.796 143.251 159.585 143.749 159.163C144.253 158.735 144.587 157.994 144.751 156.939H146.447ZM153.452 155.823H150.446V161H148.75V148.203H152.986C154.428 148.203 155.535 148.531 156.309 149.188C157.088 149.844 157.478 150.799 157.478 152.053C157.478 152.85 157.261 153.544 156.827 154.136C156.399 154.728 155.802 155.17 155.034 155.463L158.04 160.895V161H156.229L153.452 155.823ZM150.446 154.443H153.039C153.877 154.443 154.542 154.227 155.034 153.793C155.532 153.359 155.781 152.779 155.781 152.053C155.781 151.262 155.544 150.655 155.069 150.233C154.601 149.812 153.921 149.598 153.03 149.592H150.446V154.443ZM168.859 148.203V156.904C168.854 158.111 168.473 159.099 167.717 159.866C166.967 160.634 165.947 161.064 164.658 161.158L164.21 161.176C162.81 161.176 161.693 160.798 160.861 160.042C160.029 159.286 159.607 158.246 159.596 156.922V148.203H161.266V156.869C161.266 157.795 161.521 158.516 162.03 159.031C162.54 159.541 163.267 159.796 164.21 159.796C165.165 159.796 165.895 159.541 166.398 159.031C166.908 158.521 167.163 157.804 167.163 156.878V148.203H168.859ZM171.522 161V148.203H175.135C176.248 148.203 177.232 148.449 178.088 148.941C178.943 149.434 179.603 150.134 180.065 151.042C180.534 151.95 180.771 152.993 180.777 154.171V154.988C180.777 156.195 180.543 157.253 180.074 158.161C179.611 159.069 178.946 159.767 178.079 160.253C177.218 160.739 176.213 160.988 175.064 161H171.522ZM173.21 149.592V159.62H174.985C176.286 159.62 177.297 159.216 178.018 158.407C178.744 157.599 179.107 156.447 179.107 154.953V154.206C179.107 152.753 178.765 151.625 178.079 150.822C177.399 150.014 176.433 149.604 175.179 149.592H173.21ZM193.416 161C193.322 160.812 193.246 160.479 193.188 159.998C192.432 160.783 191.529 161.176 190.48 161.176C189.543 161.176 188.772 160.912 188.169 160.385C187.571 159.852 187.272 159.178 187.272 158.363C187.272 157.373 187.647 156.605 188.397 156.061C189.153 155.51 190.214 155.234 191.579 155.234H193.161V154.487C193.161 153.919 192.991 153.468 192.651 153.134C192.312 152.794 191.811 152.624 191.148 152.624C190.568 152.624 190.082 152.771 189.689 153.063C189.297 153.356 189.101 153.711 189.101 154.127H187.466C187.466 153.652 187.633 153.195 187.967 152.756C188.307 152.311 188.764 151.959 189.338 151.701C189.918 151.443 190.554 151.314 191.245 151.314C192.341 151.314 193.199 151.59 193.82 152.141C194.441 152.686 194.764 153.438 194.787 154.399V158.776C194.787 159.649 194.898 160.344 195.121 160.859V161H193.416ZM190.718 159.761C191.228 159.761 191.711 159.629 192.168 159.365C192.625 159.102 192.956 158.759 193.161 158.337V156.386H191.887C189.895 156.386 188.898 156.969 188.898 158.135C188.898 158.645 189.068 159.043 189.408 159.33C189.748 159.617 190.185 159.761 190.718 159.761ZM201.15 159.849C201.73 159.849 202.237 159.673 202.671 159.321C203.104 158.97 203.345 158.53 203.392 158.003H204.93C204.9 158.548 204.713 159.066 204.367 159.559C204.021 160.051 203.559 160.443 202.979 160.736C202.404 161.029 201.795 161.176 201.15 161.176C199.855 161.176 198.824 160.745 198.057 159.884C197.295 159.017 196.914 157.833 196.914 156.333V156.061C196.914 155.135 197.084 154.312 197.424 153.591C197.764 152.87 198.25 152.311 198.883 151.912C199.521 151.514 200.274 151.314 201.142 151.314C202.208 151.314 203.093 151.634 203.796 152.272C204.505 152.911 204.883 153.74 204.93 154.76H203.392C203.345 154.145 203.11 153.641 202.688 153.248C202.272 152.85 201.757 152.65 201.142 152.65C200.315 152.65 199.674 152.949 199.217 153.547C198.766 154.139 198.54 154.997 198.54 156.122V156.43C198.54 157.525 198.766 158.369 199.217 158.961C199.668 159.553 200.312 159.849 201.15 159.849ZM210.572 159.849C211.152 159.849 211.659 159.673 212.093 159.321C212.526 158.97 212.767 158.53 212.813 158.003H214.352C214.322 158.548 214.135 159.066 213.789 159.559C213.443 160.051 212.98 160.443 212.4 160.736C211.826 161.029 211.217 161.176 210.572 161.176C209.277 161.176 208.246 160.745 207.479 159.884C206.717 159.017 206.336 157.833 206.336 156.333V156.061C206.336 155.135 206.506 154.312 206.846 153.591C207.186 152.87 207.672 152.311 208.305 151.912C208.943 151.514 209.696 151.314 210.563 151.314C211.63 151.314 212.515 151.634 213.218 152.272C213.927 152.911 214.305 153.74 214.352 154.76H212.813C212.767 154.145 212.532 153.641 212.11 153.248C211.694 152.85 211.179 152.65 210.563 152.65C209.737 152.65 209.096 152.949 208.639 153.547C208.188 154.139 207.962 154.997 207.962 156.122V156.43C207.962 157.525 208.188 158.369 208.639 158.961C209.09 159.553 209.734 159.849 210.572 159.849ZM220.126 161.176C218.837 161.176 217.788 160.754 216.979 159.91C216.171 159.061 215.767 157.927 215.767 156.509V156.21C215.767 155.267 215.945 154.426 216.303 153.688C216.666 152.943 217.17 152.363 217.814 151.947C218.465 151.525 219.168 151.314 219.924 151.314C221.16 151.314 222.121 151.722 222.807 152.536C223.492 153.351 223.835 154.517 223.835 156.034V156.711H217.393C217.416 157.648 217.688 158.407 218.21 158.987C218.737 159.562 219.405 159.849 220.214 159.849C220.788 159.849 221.274 159.731 221.673 159.497C222.071 159.263 222.42 158.952 222.719 158.565L223.712 159.339C222.915 160.563 221.72 161.176 220.126 161.176ZM219.924 152.65C219.268 152.65 218.717 152.891 218.271 153.371C217.826 153.846 217.551 154.514 217.445 155.375H222.209V155.252C222.162 154.426 221.939 153.787 221.541 153.336C221.143 152.879 220.604 152.65 219.924 152.65ZM231.262 158.478C231.262 158.038 231.095 157.698 230.761 157.458C230.433 157.212 229.855 157.001 229.029 156.825C228.209 156.649 227.556 156.438 227.069 156.192C226.589 155.946 226.231 155.653 225.997 155.313C225.769 154.974 225.654 154.569 225.654 154.101C225.654 153.321 225.982 152.662 226.639 152.123C227.301 151.584 228.145 151.314 229.17 151.314C230.248 151.314 231.121 151.593 231.789 152.149C232.463 152.706 232.8 153.418 232.8 154.285H231.165C231.165 153.84 230.975 153.456 230.594 153.134C230.219 152.812 229.744 152.65 229.17 152.65C228.578 152.65 228.115 152.779 227.781 153.037C227.447 153.295 227.28 153.632 227.28 154.048C227.28 154.44 227.436 154.736 227.746 154.936C228.057 155.135 228.616 155.325 229.425 155.507C230.239 155.688 230.898 155.905 231.402 156.157C231.906 156.409 232.278 156.714 232.519 157.071C232.765 157.423 232.888 157.854 232.888 158.363C232.888 159.213 232.548 159.896 231.868 160.411C231.188 160.921 230.307 161.176 229.223 161.176C228.461 161.176 227.787 161.041 227.201 160.771C226.615 160.502 226.155 160.127 225.821 159.646C225.493 159.16 225.329 158.636 225.329 158.073H226.955C226.984 158.618 227.201 159.052 227.605 159.374C228.016 159.69 228.555 159.849 229.223 159.849C229.838 159.849 230.33 159.726 230.699 159.479C231.074 159.228 231.262 158.894 231.262 158.478ZM240.543 158.478C240.543 158.038 240.376 157.698 240.042 157.458C239.714 157.212 239.137 157.001 238.311 156.825C237.49 156.649 236.837 156.438 236.351 156.192C235.87 155.946 235.513 155.653 235.278 155.313C235.05 154.974 234.936 154.569 234.936 154.101C234.936 153.321 235.264 152.662 235.92 152.123C236.582 151.584 237.426 151.314 238.451 151.314C239.529 151.314 240.402 151.593 241.07 152.149C241.744 152.706 242.081 153.418 242.081 154.285H240.446C240.446 153.84 240.256 153.456 239.875 153.134C239.5 152.812 239.025 152.65 238.451 152.65C237.859 152.65 237.396 152.779 237.062 153.037C236.729 153.295 236.562 153.632 236.562 154.048C236.562 154.44 236.717 154.736 237.027 154.936C237.338 155.135 237.897 155.325 238.706 155.507C239.521 155.688 240.18 155.905 240.684 156.157C241.188 156.409 241.56 156.714 241.8 157.071C242.046 157.423 242.169 157.854 242.169 158.363C242.169 159.213 241.829 159.896 241.149 160.411C240.47 160.921 239.588 161.176 238.504 161.176C237.742 161.176 237.068 161.041 236.482 160.771C235.896 160.502 235.437 160.127 235.103 159.646C234.774 159.16 234.61 158.636 234.61 158.073H236.236C236.266 158.618 236.482 159.052 236.887 159.374C237.297 159.69 237.836 159.849 238.504 159.849C239.119 159.849 239.611 159.726 239.98 159.479C240.355 159.228 240.543 158.894 240.543 158.478ZM250.958 149.188V151.49H252.733V152.747H250.958V158.645C250.958 159.025 251.037 159.312 251.195 159.506C251.354 159.693 251.623 159.787 252.004 159.787C252.191 159.787 252.449 159.752 252.777 159.682V161C252.35 161.117 251.934 161.176 251.529 161.176C250.803 161.176 250.255 160.956 249.886 160.517C249.517 160.077 249.332 159.453 249.332 158.645V152.747H247.601V151.49H249.332V149.188H250.958ZM254.034 156.157C254.034 155.226 254.216 154.388 254.579 153.644C254.948 152.899 255.458 152.325 256.108 151.921C256.765 151.517 257.512 151.314 258.35 151.314C259.645 151.314 260.69 151.763 261.487 152.659C262.29 153.556 262.691 154.748 262.691 156.236V156.351C262.691 157.276 262.513 158.108 262.155 158.847C261.804 159.579 261.297 160.15 260.635 160.561C259.979 160.971 259.223 161.176 258.367 161.176C257.078 161.176 256.032 160.728 255.229 159.831C254.433 158.935 254.034 157.748 254.034 156.271V156.157ZM255.669 156.351C255.669 157.405 255.912 158.252 256.398 158.891C256.891 159.529 257.547 159.849 258.367 159.849C259.193 159.849 259.85 159.526 260.336 158.882C260.822 158.231 261.065 157.323 261.065 156.157C261.065 155.114 260.816 154.271 260.318 153.626C259.826 152.976 259.17 152.65 258.35 152.65C257.547 152.65 256.899 152.97 256.407 153.608C255.915 154.247 255.669 155.161 255.669 156.351ZM275.066 161C274.973 160.812 274.896 160.479 274.838 159.998C274.082 160.783 273.18 161.176 272.131 161.176C271.193 161.176 270.423 160.912 269.819 160.385C269.222 159.852 268.923 159.178 268.923 158.363C268.923 157.373 269.298 156.605 270.048 156.061C270.804 155.51 271.864 155.234 273.229 155.234H274.812V154.487C274.812 153.919 274.642 153.468 274.302 153.134C273.962 152.794 273.461 152.624 272.799 152.624C272.219 152.624 271.732 152.771 271.34 153.063C270.947 153.356 270.751 153.711 270.751 154.127H269.116C269.116 153.652 269.283 153.195 269.617 152.756C269.957 152.311 270.414 151.959 270.988 151.701C271.568 151.443 272.204 151.314 272.896 151.314C273.991 151.314 274.85 151.59 275.471 152.141C276.092 152.686 276.414 153.438 276.438 154.399V158.776C276.438 159.649 276.549 160.344 276.771 160.859V161H275.066ZM272.368 159.761C272.878 159.761 273.361 159.629 273.818 159.365C274.275 159.102 274.606 158.759 274.812 158.337V156.386H273.537C271.545 156.386 270.549 156.969 270.549 158.135C270.549 158.645 270.719 159.043 271.059 159.33C271.398 159.617 271.835 159.761 272.368 159.761ZM291.502 156.351C291.502 157.804 291.168 158.973 290.5 159.857C289.832 160.736 288.936 161.176 287.811 161.176C286.609 161.176 285.681 160.751 285.024 159.901L284.945 161H283.451V147.5H285.077V152.536C285.733 151.722 286.639 151.314 287.793 151.314C288.947 151.314 289.853 151.751 290.509 152.624C291.171 153.497 291.502 154.692 291.502 156.21V156.351ZM289.876 156.166C289.876 155.059 289.662 154.203 289.234 153.6C288.807 152.996 288.191 152.694 287.389 152.694C286.316 152.694 285.546 153.192 285.077 154.188V158.302C285.575 159.298 286.352 159.796 287.406 159.796C288.186 159.796 288.792 159.494 289.226 158.891C289.659 158.287 289.876 157.379 289.876 156.166ZM299.43 160.06C298.797 160.804 297.868 161.176 296.644 161.176C295.63 161.176 294.856 160.883 294.323 160.297C293.796 159.705 293.529 158.832 293.523 157.678V151.49H295.149V157.634C295.149 159.075 295.735 159.796 296.907 159.796C298.149 159.796 298.976 159.333 299.386 158.407V151.49H301.012V161H299.465L299.43 160.06ZM307.305 159.849C307.885 159.849 308.392 159.673 308.825 159.321C309.259 158.97 309.499 158.53 309.546 158.003H311.084C311.055 158.548 310.867 159.066 310.521 159.559C310.176 160.051 309.713 160.443 309.133 160.736C308.559 161.029 307.949 161.176 307.305 161.176C306.01 161.176 304.979 160.745 304.211 159.884C303.449 159.017 303.068 157.833 303.068 156.333V156.061C303.068 155.135 303.238 154.312 303.578 153.591C303.918 152.87 304.404 152.311 305.037 151.912C305.676 151.514 306.429 151.314 307.296 151.314C308.362 151.314 309.247 151.634 309.95 152.272C310.659 152.911 311.037 153.74 311.084 154.76H309.546C309.499 154.145 309.265 153.641 308.843 153.248C308.427 152.85 307.911 152.65 307.296 152.65C306.47 152.65 305.828 152.949 305.371 153.547C304.92 154.139 304.694 154.997 304.694 156.122V156.43C304.694 157.525 304.92 158.369 305.371 158.961C305.822 159.553 306.467 159.849 307.305 159.849ZM315.566 156.597L314.547 157.66V161H312.921V147.5H314.547V155.665L315.417 154.619L318.379 151.49H320.356L316.656 155.463L320.787 161H318.88L315.566 156.597ZM325.806 161.176C324.517 161.176 323.468 160.754 322.659 159.91C321.851 159.061 321.446 157.927 321.446 156.509V156.21C321.446 155.267 321.625 154.426 321.982 153.688C322.346 152.943 322.85 152.363 323.494 151.947C324.145 151.525 324.848 151.314 325.604 151.314C326.84 151.314 327.801 151.722 328.486 152.536C329.172 153.351 329.515 154.517 329.515 156.034V156.711H323.072C323.096 157.648 323.368 158.407 323.89 158.987C324.417 159.562 325.085 159.849 325.894 159.849C326.468 159.849 326.954 159.731 327.353 159.497C327.751 159.263 328.1 158.952 328.398 158.565L329.392 159.339C328.595 160.563 327.399 161.176 325.806 161.176ZM325.604 152.65C324.947 152.65 324.396 152.891 323.951 153.371C323.506 153.846 323.23 154.514 323.125 155.375H327.889V155.252C327.842 154.426 327.619 153.787 327.221 153.336C326.822 152.879 326.283 152.65 325.604 152.65ZM333.61 149.188V151.49H335.386V152.747H333.61V158.645C333.61 159.025 333.689 159.312 333.848 159.506C334.006 159.693 334.275 159.787 334.656 159.787C334.844 159.787 335.102 159.752 335.43 159.682V161C335.002 161.117 334.586 161.176 334.182 161.176C333.455 161.176 332.907 160.956 332.538 160.517C332.169 160.077 331.984 159.453 331.984 158.645V152.747H330.253V151.49H331.984V149.188H333.61Z" fill="white"/>
</g>
</g>
</g>
<defs>
<clipPath id="clip0_1_988">
<rect width="528" height="311" fill="white"/>
</clipPath>
<clipPath id="clip1_1_988">
<rect width="526" height="112" fill="white" transform="translate(1 1)"/>
</clipPath>
<clipPath id="clip2_1_988">
<rect width="526" height="112" fill="white" transform="translate(1 1)"/>
</clipPath>
<clipPath id="clip3_1_988">
<rect width="526" height="197" fill="white" transform="translate(1 113)"/>
</clipPath>
<clipPath id="clip4_1_988">
<rect width="460" height="132" fill="white" transform="translate(34 145)"/>
</clipPath>
</defs>
</svg>
